<svg xmlns="http://www.w3.org/2000/svg" id="Capa_1" data-name="Capa 1" viewBox="0 0 226.91 93.55"><defs><style>      .cls-1 {        fill-rule: evenodd;      }      .cls-1, .cls-2 {        fill: #fff;        stroke-width: 0px;      }    </style></defs><g><path class="cls-1" d="M68.77,68.21v-13.7h4.69c4.49,0,7.63,1.49,7.63,6.79s-3.23,6.91-7.63,6.91h-4.69ZM72.21,57.22v8.28h1.33c2.57,0,4.01-1.41,4.01-4.14s-1.5-4.14-4.01-4.14h-1.33Z"></path><polygon class="cls-2" points="83.77 68.21 83.77 54.51 92.86 54.51 92.86 57.1 87.2 57.1 87.2 59.93 92.54 59.93 92.54 62.52 87.2 62.52 87.2 65.62 93.06 65.62 93.06 68.21 83.77 68.21 83.77 68.21"></polygon><path class="cls-1" d="M101.17,68.21l4.89-13.7h4.21l4.97,13.7h-3.77l-.96-2.93h-4.84l-1.02,2.93h-3.49ZM109.71,62.7l-1.53-5.36-1.7,5.36h3.23Z"></path><polygon class="cls-2" points="117.31 68.21 117.31 54.51 120.75 54.51 120.75 65.5 126.07 65.5 126.07 68.21 117.31 68.21 117.31 68.21"></polygon><polygon class="cls-2" points="128.47 68.21 128.47 54.51 131.9 54.51 131.9 68.21 128.47 68.21 128.47 68.21"></polygon><path class="cls-2" d="M145.77,65.03l.17,2.87c-.98.26-2.07.55-3.82.55-3.44,0-7.41-1.84-7.41-7.03,0-4.77,3.14-7.14,7.39-7.14,1.31,0,2.59.31,3.82.71l-.28,2.96c-1.11-.65-2.18-.96-3.36-.96-2.44,0-4.03,1.88-4.03,4.44,0,2.69,1.79,4.32,4.3,4.32,1.13,0,2.27-.31,3.21-.71h0Z"></path><path class="cls-1" d="M147.17,68.21l4.9-13.7h4.21l4.97,13.7h-3.77l-.96-2.93h-4.84l-1.02,2.93h-3.49ZM155.71,62.7l-1.53-5.36-1.7,5.36h3.23Z"></path><polygon class="cls-2" points="163.37 68.21 163.37 54.51 167.75 54.51 172.11 63.82 172.09 54.51 175.23 54.51 175.23 68.21 170.96 68.21 166.45 58.85 166.53 68.21 163.37 68.21 163.37 68.21"></polygon><polygon class="cls-2" points="180.62 68.21 180.62 57.22 177.44 57.22 177.44 54.51 187.23 54.51 187.23 57.22 184.05 57.22 184.05 68.21 180.62 68.21 180.62 68.21"></polygon><polygon class="cls-2" points="189.29 68.21 189.29 54.51 198.38 54.51 198.38 57.1 192.73 57.1 192.73 59.93 198.07 59.93 198.07 62.52 192.73 62.52 192.73 65.62 198.58 65.62 198.58 68.21 189.29 68.21 189.29 68.21"></polygon><path class="cls-1" d="M68.77,48.58l4.89-13.7h4.21l4.97,13.7h-3.77l-.96-2.93h-4.84l-1.02,2.93h-3.49ZM77.31,43.07l-1.53-5.36-1.7,5.36h3.23Z"></path><polygon class="cls-2" points="86.79 48.58 86.79 43.42 82.02 34.88 85.98 34.88 88.51 40.38 91 34.88 94.96 34.88 90.23 43.42 90.23 48.58 86.79 48.58 86.79 48.58"></polygon><path class="cls-2" d="M108.13,34.88v8.5c0,3.75-2.29,5.44-5.65,5.44s-5.65-1.69-5.65-5.44v-8.5h3.44v7.89c0,1.81.46,3.34,2.22,3.34s2.22-1.53,2.22-3.34v-7.89h3.44Z"></path><polygon class="cls-2" points="111.06 48.58 111.06 34.88 115.44 34.88 119.8 44.19 119.78 34.88 122.92 34.88 122.92 48.58 118.65 48.58 114.14 39.22 114.22 48.58 111.06 48.58 111.06 48.58"></polygon><polygon class="cls-2" points="128.24 48.58 128.24 37.59 125.07 37.59 125.07 34.88 134.86 34.88 134.86 37.59 131.68 37.59 131.68 48.58 128.24 48.58 128.24 48.58"></polygon><path class="cls-1" d="M134.53,48.58l4.9-13.7h4.21l4.97,13.7h-3.77l-.96-2.93h-4.84l-1.02,2.93h-3.49ZM143.07,43.07l-1.53-5.36-1.7,5.36h3.23Z"></path><polygon class="cls-2" points="150.52 48.58 150.52 34.88 155.93 34.88 158.67 43.99 161.57 34.88 166.77 34.88 166.77 48.58 163.41 48.58 163.47 38.06 160.14 48.58 156.99 48.58 153.84 38.06 153.88 48.58 150.52 48.58 150.52 48.58"></polygon><polygon class="cls-2" points="169.91 48.58 169.91 34.88 173.34 34.88 173.34 48.58 169.91 48.58 169.91 48.58"></polygon><polygon class="cls-2" points="176.48 48.58 176.48 34.88 185.56 34.88 185.56 37.47 179.91 37.47 179.91 40.3 185.25 40.3 185.25 42.89 179.91 42.89 179.91 45.99 185.77 45.99 185.77 48.58 176.48 48.58 176.48 48.58"></polygon><polygon class="cls-2" points="188.56 48.58 188.56 34.88 192.94 34.88 197.3 44.19 197.28 34.88 200.42 34.88 200.42 48.58 196.15 48.58 191.65 39.22 191.72 48.58 188.56 48.58 188.56 48.58"></polygon><polygon class="cls-2" points="205.75 48.58 205.75 37.59 202.57 37.59 202.57 34.88 212.36 34.88 212.36 37.59 209.18 37.59 209.18 48.58 205.75 48.58 205.75 48.58"></polygon><path class="cls-1" d="M213.98,41.73c0-4.4,2.22-7.09,6.46-7.09s6.47,2.69,6.47,7.09-2.25,7.09-6.47,7.09-6.46-2.73-6.46-7.09h0ZM217.52,41.73c0,2.26.83,4.38,2.92,4.38s2.92-2.12,2.92-4.38c0-2.38-.83-4.38-2.92-4.38s-2.92,2-2.92,4.38h0Z"></path></g><g><path class="cls-2" d="M47.63,65.3H14.37c0,.28.04.82.25,1.41h32.74c.22-.59.26-1.13.27-1.41Z"></path><path class="cls-2" d="M28.57,69.25s1.81.26,2.44,1.6c.64-1.31,2.43-1.6,2.43-1.6h9.57c1.69,0,2.76-.49,3.44-1.14H15.53c.68.65,1.76,1.14,3.47,1.14h9.57Z"></path><polygon class="cls-2" points="47.63 59.69 39.52 59.69 39.81 60.63 39.65 61.09 47.63 61.09 47.63 59.69"></polygon><polygon class="cls-2" points="14.37 63.9 47.63 63.9 47.63 62.49 38.66 62.49 38.18 61.1 37.31 60.29 38.68 59.85 34.48 56.79 34.56 56.04 31.06 53.72 30.42 52.32 29.69 52.32 30.53 54.17 33.86 56.37 33.79 57.1 37.25 59.62 36.04 60.01 37.61 61.47 37.96 62.49 36.45 62.49 36.48 62.47 33.94 59.96 33.31 58.4 30.68 57.58 30.48 58.21 32.82 58.94 33.38 60.34 35.57 62.49 14.37 62.49 14.37 63.9"></polygon><path class="cls-2" d="M47.63,53.4v-28.76H14.37v28.76s0,4.88,0,4.88h7.69c.03-.18.08-.37.14-.49.11-.23,1.47-1.49,1.61-1.58.08-.04.18-.25.27-.46v-.13s.81.51.81.51l-.67,2.03.8,1.31-.25,1.83.65.09.28-2.06-.76-1.25.74-2.23-1.71-1.05v-.13c-.08-.12-.14-.23-.16-.31-.04-.14.34-.9.34-.9l.03-.11c.46.3,1.29.92,1.49,1.07l1.23,1.87.29,2.13,1.1,1.51.53-.39-1-1.38-.29-2.11-1.38-2.09-.05-.03s-.59-.44-1.1-.8c-.25-.18-.49-.35-.67-.47l.03-.11-.03-.2h0l-.77-.81,1.63-8.01c-.92-.58-.97-1-.96-1.12v-2.85h.88s0-2.18,0-2.18h-.65v-1.87h4.34v-1.64h4.47v1.64s4.35,0,4.35,0v1.84h-.62v2.18h.82s0,2.89,0,2.89c0,0,.08.42-.95,1.08l1.68,8-.84.83h0l.19,1.07.26,1.48.06.14-2.51-1.23-.51-.88-.57.33.61,1.05,3.35,1.64v-.02s.08.17.08.17l.51,1.12-.15.95.03.11h8.54v-4.88ZM20.99,47.04c-.02.22-.1.17-.29.17-.59,0-1.18-.03-1.76-.03s-1.22.03-1.83.03c-.11,0-.19-.02-.19-.14,0-.13.11-.18.21-.2.51-.09.49-.22.49-.73v-2.82c0-.48.05-.69-.45-.78-.09-.02-.25-.02-.25-.16s.08-.15.19-.15c.4,0,.79.03,1.19.03.37,0,.74-.03,1.11-.03.11,0,.19.02.19.15s-.12.14-.22.16c-.53.09-.49.24-.49.78v2.82c0,.42.06.73.62.73,1.12,0,1.14-.97,1.45-.97.12,0,.15.07.15.18,0,.31-.1.63-.12.95ZM21.58,34.87c-.32,0-.63-.03-.94-.03-.39,0-.76.03-1.13.03-.11,0-.25-.01-.25-.16,0-.27.54-.05.54-.33,0-.1-.05-.22-.08-.3l-.25-.64c-.1-.28-.08-.26-.36-.26h-1.01c-.27,0-.25-.02-.34.24-.07.22-.17.49-.17.72,0,.56.77.22.77.58,0,.14-.15.16-.26.16-.24,0-.49-.01-.73-.01s-.49.01-.73.01c-.12,0-.24-.02-.24-.16s.12-.15.22-.17c.22-.04.3-.05.42-.27.1-.19.24-.6.32-.82l.43-1.09.9-2.17c.11-.26.12-.4.43-.4.26,0,.25.1.34.32l1.59,3.85c.05.12.12.3.19.4.09.14.16.18.32.19.13,0,.28-.02.28.17,0,.16-.15.16-.26.16ZM30.86,33.15l-6.32-3.96,6.32-3.96,6.32,3.96-6.32,3.96ZM41.14,33.37v-2.82c0-.48.05-.69-.45-.78-.09-.02-.25-.02-.25-.16,0-.13.08-.15.19-.15.4,0,.79.03,1.19.03.37,0,.74-.03,1.11-.03.11,0,.19.02.19.15s-.12.14-.22.16c-.53.09-.49.24-.49.78v2.82c0,.42.06.73.62.73,1.12,0,1.14-.97,1.45-.97.12,0,.15.07.15.18,0,.31-.1.64-.12.95-.02.22-.1.17-.29.17-.59,0-1.18-.03-1.76-.03s-1.22.03-1.83.03c-.11,0-.19-.02-.19-.14,0-.13.12-.18.21-.2.51-.09.49-.21.49-.73ZM44.57,46.49c-.32,0-.64-.03-.94-.03-.39,0-.76.03-1.13.03-.11,0-.25-.02-.25-.17,0-.27.54-.05.54-.33,0-.1-.05-.22-.08-.3l-.25-.64c-.1-.28-.08-.26-.36-.26h-1.01c-.27,0-.25-.02-.34.24-.07.22-.17.49-.17.72,0,.56.77.22.77.58,0,.14-.15.17-.26.17-.24,0-.49-.02-.73-.02s-.49.02-.73.02c-.12,0-.24-.02-.24-.17,0-.13.12-.15.22-.17.22-.04.3-.06.42-.27.1-.19.24-.6.32-.82l.43-1.09.9-2.17c.11-.26.12-.4.43-.4.26,0,.25.1.34.32l1.59,3.85c.05.12.12.3.19.4.09.13.16.18.32.19.13,0,.28-.02.28.17,0,.16-.15.17-.26.17Z"></path><path class="cls-2" d="M22.89,60.19s-.16-.23-.29-.5h-8.22v1.39h8.14c0-.43.46-.87.37-.9Z"></path><polygon class="cls-2" points="33.23 27.98 32.34 27.44 32.34 30.93 33.23 30.4 33.23 27.98"></polygon><path class="cls-2" d="M41.62,42.81l-.51,1.31s-.07.18-.07.23c0,.11.16.08.23.08h.67c.06,0,.26.03.26-.06,0-.04-.06-.17-.07-.2l-.51-1.35Z"></path><polygon class="cls-2" points="34.24 28.58 34.24 29.8 35.23 29.19 34.24 28.58"></polygon><polygon class="cls-2" points="32.67 35.72 32.67 39.54 33.83 39.54 33.83 37.36 33.17 37.36 33.19 35.72 32.67 35.72"></polygon><polygon class="cls-2" points="27.47 29.8 27.48 28.58 26.48 29.19 27.47 29.8"></polygon><polygon class="cls-2" points="28.32 39.54 29.46 39.54 29.46 35.72 28.95 35.72 28.96 37.36 28.32 37.36 28.32 39.54"></polygon><polygon class="cls-2" points="30.38 26.82 30.38 31.56 30.86 31.85 31.31 31.56 31.31 26.81 30.86 26.54 30.38 26.82"></polygon><polygon class="cls-2" points="28.48 30.4 29.39 30.95 29.39 27.43 28.48 27.98 28.48 30.4"></polygon><polygon class="cls-2" points="25.29 16.26 23.14 17.35 25.61 17.57 27.76 16.48 25.29 16.26"></polygon><path class="cls-2" d="M20.74,19.03c1.1-.42,1.88-1.04,1.74-1.39-.13-.35-1.13-.29-2.23.13-1.1.42-1.88,1.04-1.74,1.39.13.35,1.13.29,2.23-.13Z"></path><polygon class="cls-2" points="17.89 19.55 15.48 20.1 13.77 21.8 16.19 21.25 17.89 19.55"></polygon><polygon class="cls-2" points="36.67 16.26 34.2 16.48 36.35 17.57 38.82 17.35 36.67 16.26"></polygon><path class="cls-2" d="M43.45,19.23c.13-.35-.65-.97-1.74-1.39-1.1-.42-2.09-.48-2.23-.13-.13.35.65.97,1.74,1.39,1.1.42,2.09.48,2.23.13Z"></path><polygon class="cls-2" points="46.3 20.1 43.89 19.55 45.59 21.25 48 21.8 46.3 20.1"></polygon><path class="cls-2" d="M32.88,16.36c0-.34-.9-.62-2-.62s-2,.28-2,.62.9.62,2,.62,2-.28,2-.62Z"></path><path class="cls-2" d="M13.55,18.11s2.76-1.55,3.48-1.88c.72-.34,3.03-1.35,3.03-1.35,0,0,.8-2.21.54-3.77-.05-.27,1.12,2.58,2.29,2.96,0,0,2.22-.47,2.96-.58.74-.11,2.9-.29,2.9-.29,0,0,2.01-2.2,2.14-3.84.14,1.64,2.16,3.84,2.16,3.84,0,0,2.15.18,2.9.29.74.11,2.96.58,2.96.58,1.17-.38,2.33-3.23,2.29-2.96-.26,1.56.54,3.77.54,3.77,0,0,2.31,1.01,3.03,1.34.72.34,3.48,1.89,3.48,1.89,4.71-5.52,8.1-5.82,8.1-5.82-1.49-2.18-3.13-1.66-3.13-1.66-.53-1.63-1.89-1.82-1.89-1.82.68,1.59.13,3.69.13,3.69h-.29c.34-2.05-.68-3.04-.76-2.98-.59.38-.43,1.57-.43,1.57-.71-.96-1.27-.87-1.27-.87-.83,1.26.19,2.58.19,2.58-1.45-.73-2.08.17-2.08.17,1.45.66,1.05,2.03.29,2.47-.76.44-2.64-.36-2.8-1.63-.24-1.87,1.65-2.21,1.65-2.21-.67-1.02-2-.95-2-.95.99-1.92,2.27-1.85,2.27-1.85-1.27-.84-2.25-.5-2.25-.5.93-1.41.38-2.86.38-2.86-.36.03-.84.46-.84.46.18-.37.14-2.27-.15-2.19-.84.23-1.48,1.75-1.48,1.75.09-.39-.24-.78-.24-.78-1.32.62-1.53,1.82-1.53,1.82-1.11-1.02-1.89-.65-1.89-.65.81,1.28.83,3.34.83,3.34,0,0-.36-.4-.94-.53-.58-.14-1.23.2-1.23.2,0,0,.16-.01.24.04.18.12,1.01.88.62,1.84-.5,1.24-1.93,1.19-2.58.9-.85-.38-1.71-1.91-.99-2.84.81-1.04,1.63-.19,1.63-.19,0-1.67-1.28-1.82-1.28-1.82v-.23s.44.05.51-.08c.41-.73.71-2.23.71-2.23-.52-.38-1.35-.49-1.51-.47-.17.02-.71.7-1.01,1.32-.21.43-.51,1.23-.51,1.23,0,0-.23-.1-.3-.14-.07-.04-.2-.25-.2-.25.76-2.11,1.9-2.88,1.9-2.88-.11-1.01-.53-1.44-.53-1.44-1.05.17-1.47.91-1.47.91-.09-.82-1.24-2.51-1.24-2.51,0,0-1.05,1.58-1.22,2.51,0,0-.42-.73-1.47-.91,0,0-.41.43-.53,1.44,0,0,1.13.77,1.89,2.88,0,0-.13.21-.2.25-.07.04-.29.14-.29.14,0,0-.31-.8-.51-1.23-.3-.63-.84-1.3-1.01-1.32-.17-.02-1,.09-1.52.47,0,0,.3,1.5.71,2.23.07.13.51.08.51.08v.23s-1.28.15-1.28,1.82c0,0,.82-.85,1.63.19.72.93-.14,2.46-.99,2.84-.65.29-2.08.34-2.58-.9-.39-.96.44-1.72.62-1.84.08-.05.24-.04.24-.04,0,0-.64-.34-1.23-.2-.58.14-.94.54-.94.54,0,0,.02-2.06.83-3.34,0,0-.78-.37-1.9.65,0,0-.2-1.2-1.53-1.82,0,0-.32.38-.24.77,0,0-.64-1.51-1.48-1.75-.28-.08-.32,1.82-.15,2.19,0,0-.48-.43-.84-.46,0,0-.55,1.45.38,2.86,0,0-.98-.34-2.25.5,0,0,1.28-.07,2.26,1.85,0,0-1.32-.07-2,.95,0,0,1.88.33,1.65,2.21-.16,1.27-2.04,2.06-2.8,1.63-.76-.44-1.16-1.8.29-2.47,0,0-.63-.9-2.08-.17,0,0,1.02-1.32.19-2.58,0,0-.56-.09-1.27.88,0,0,.17-1.19-.42-1.57-.09-.05-1.1.93-.76,2.98h-.29s-.55-2.1.13-3.69c0,0-1.37.19-1.89,1.82,0,0-1.64-.52-3.13,1.66,0,0,3.39.3,8.1,5.82Z"></path><path class="cls-2" d="M31.35,83.27l-.57.49-.45-.5c-.32.2-.54.61-.54,1.07,0,.66.45,1.2.99,1.2s1-.54,1-1.2c0-.42-.16-.84-.42-1.06Z"></path><rect class="cls-2" x="30.31" y="86.4" width=".98" height="3.11"></rect><path class="cls-2" d="M30.12,89.59s-.12-1.13-.12-1.72c0-.75.04-1.45.02-1.44-.4.16-2.4,1.26-2.67,4.3,0,.04-.4-.21-.66.19-.25.36.04.66.15.73.11.07-.01.97,1.09,1.37.16.06.69-.19.69-.19,0,0-.79-.97.65-2.95,0,0,.32,3.56.32,3.56l.41-.07s-.11-2.44-.1-2.59c.01-.16.1-.96.21-1.19Z"></path><path class="cls-2" d="M33.38,88.21s-.05-.31-.24-.6c-.64-.97-1.54-1.22-1.6-1.22l.09,3.13s1.01,1.34,1.07,2.44c.07,1.1.04,1.48.04,1.48l.4.11s.31-1.07.25-1.79c-.07-.72-.32-1.6,0-2.23,0-.02.27,1.6.27,1.6l.52.32s.16-.54.16-1.13c0-.51-.51-1.75-.96-2.1Z"></path><path class="cls-2" d="M46.8,22.99c-4.34-3.33-9.89-5.33-15.93-5.33s-11.57,2-15.92,5.33c0,0-.32.2-.11.53.19.3.44.2.64.05,4.28-3.13,9.56-4.96,15.39-4.96s11.12,1.83,15.4,4.96c.2.15.44.25.64-.05.21-.33-.11-.53-.11-.53Z"></path><path class="cls-2" d="M48.46,20.44c.23-.36-.12-.57-.12-.57-4.74-3.64-10.79-5.81-17.37-5.81s-12.62,2.18-17.36,5.81c0,0-.35.22-.11.57.21.33.48.22.69.05,4.66-3.41,10.43-5.4,16.78-5.4s12.13,1.99,16.79,5.4c.21.16.48.28.69-.05Z"></path><path class="cls-2" d="M4.55,33.81c.12.97-.09,1.7-.09,1.7.98.09,2.17.96,2.17.96,0,0,1.44-.36,2.37-.08,0,0,.07-.76.55-1.61.46-.83,1.8-2.17,1.13-3.36,1.07-.85.33-2.6.21-3.54-.12-.97.1-1.7.1-1.7-.98-.09-2.17-.96-2.17-.96,0,0-1.44.36-2.38.07,0,0-.07.76-.55,1.61-.46.83-1.8,2.17-1.13,3.36-1.07.85-.33,2.6-.21,3.54ZM8.45,35.65c-.45-.09-1.33-.11-1.65.03-.25-.26-1.11-.57-1.55-.66-.01,0,.21-.59.06-1.43,0-.01,1.11.68,1.92-.2.42,1.12,1.71.9,1.71.91-.45.72-.47,1.35-.48,1.34ZM7.46,30.79c.11-.59.33-1.05.47-1.02.15.03.17.53.06,1.12-.11.59-.33,1.05-.47,1.02-.15-.03-.17-.53-.05-1.12ZM10.19,32.6c-.13.61-.85,1.11-1.56.97-.51-.1-.88-.39-1.05-.9,0,0,.42-.41.48-.71,0-.02-.04.88.72,1.03.74.14.85-.47.6-.58-.2-.09-.41.07-.41.07,0,0-.26-.02-.23-.86,0,0,.07.34.68.44.62.11.71-.12.71-.12.06.2.09.53.06.66ZM9.51,31.37c-.37-.07-.66-.2-.64-.3.02-.09.33-.11.71-.04.37.07.66.21.64.3-.02.09-.33.11-.71.03ZM10.67,30.13c-.02.13-.17.43-.3.58,0,0,0-.24-.61-.38-.61-.13-.8.16-.8.16.29-.79.54-.71.54-.71,0,0,.14.23.36.22.27,0,.41-.62-.34-.76-.76-.15-1.05.7-1.05.68.06-.3-.18-.83-.18-.83.34-.41.8-.54,1.31-.44.71.14,1.19.87,1.08,1.49ZM6.99,26.04c.45.09,1.33.11,1.66-.03.25.25,1.11.57,1.55.66.02,0-.21.6-.06,1.43,0,.02-1.11-.68-1.92.2-.42-1.12-1.71-.9-1.71-.91.45-.72.47-1.35.48-1.34ZM5.26,29.08c.13-.61.85-1.11,1.56-.97.51.1.88.4,1.05.9,0,0-.42.4-.48.71,0,.01.04-.88-.72-1.03-.74-.14-.85.47-.6.58.2.09.41-.07.41-.07,0,0,.26.02.23.86,0,0-.07-.34-.68-.45-.62-.1-.71.12-.71.12-.06-.2-.09-.53-.06-.66ZM6.62,30.64c-.02.09-.33.11-.71.04-.37-.07-.66-.21-.64-.3.02-.09.33-.11.71-.04.37.07.66.21.64.3ZM4.78,31.55c.02-.13.17-.43.3-.58,0,0,0,.24.61.38.61.13.8-.16.8-.16-.29.79-.54.71-.54.71,0,0-.14-.22-.36-.22-.27,0-.41.62.34.76.76.15,1.05-.7,1.05-.68-.06.3.18.83.18.83-.34.41-.8.54-1.31.44-.71-.14-1.19-.87-1.08-1.49Z"></path><path class="cls-2" d="M8.09,44.81c-.26-.94-.14-1.7-.14-1.7-.98.05-2.29-.65-2.29-.65,0,0-1.37.56-2.34.4,0,0,.03.76-.32,1.67-.34.88-1.48,2.4-.65,3.48-.94.99.04,2.62.29,3.53.26.94.14,1.7.14,1.7.98-.05,2.28.65,2.28.65,0,0,1.37-.56,2.34-.41,0,0-.03-.76.32-1.67.34-.88,1.49-2.4.65-3.49.94-.99-.04-2.62-.29-3.53ZM3.98,43.52c.45.03,1.33-.08,1.63-.26.28.22,1.17.41,1.63.44.01,0-.12.62.14,1.42,0,.01-1.2-.52-1.88.47-.57-1.05-1.82-.65-1.82-.66.35-.77.28-1.4.29-1.4ZM5.63,48.19c-.03.6-.18,1.08-.32,1.08-.15,0-.24-.5-.21-1.1.03-.6.18-1.08.32-1.08.15,0,.24.5.21,1.1ZM2.68,46.78c.05-.62.68-1.22,1.41-1.18.52.03.93.27,1.16.75,0,0-.36.46-.37.77,0,.02-.08-.88-.85-.92-.76-.04-.77.59-.52.66.21.06.4-.13.4-.13,0,0,.26-.01.35.82,0,0-.11-.33-.74-.35-.63-.02-.69.22-.69.22-.09-.19-.16-.51-.15-.64ZM4.25,48.13c0,.09-.32.15-.7.13-.38-.02-.68-.11-.68-.2,0-.1.32-.15.7-.13.38.02.68.11.68.21ZM2.55,49.29c0-.13.11-.45.22-.62,0,0,.03.24.66.29.63.05.77-.27.77-.27-.18.82-.43.78-.43.78,0,0-.17-.2-.39-.17-.27.04-.31.67.44.71.77.04.95-.82.95-.82-.02.31.29.8.29.8-.28.45-.72.65-1.23.62-.73-.04-1.3-.7-1.28-1.32ZM6.76,52.84c-.45-.02-1.33.08-1.63.26-.28-.22-1.17-.41-1.63-.43-.01,0,.12-.62-.14-1.42,0-.01,1.2.52,1.88-.47.57,1.05,1.82.65,1.82.66-.35.77-.28,1.4-.29,1.4ZM6.64,50.76c-.52-.03-.93-.27-1.16-.75,0,0,.36-.46.38-.77,0-.01.08.88.85.92.76.04.77-.59.51-.66-.21-.06-.4.13-.4.13,0,0-.26.02-.35-.82,0,0,.11.33.74.35.63.02.69-.22.69-.22.09.19.16.51.15.64-.05.63-.68,1.22-1.41,1.18ZM6.54,48.25c0-.09.32-.15.7-.13.38.02.68.11.68.21,0,.09-.32.15-.7.13-.38-.02-.68-.11-.68-.21ZM7.96,47.69s-.04-.24-.66-.29c-.63-.05-.77.27-.77.27.18-.83.43-.78.43-.78,0,0,.17.2.39.17.27-.04.31-.67-.44-.71-.77-.04-.94.84-.94.82.02-.31-.29-.8-.29-.8.28-.45.72-.65,1.23-.62.73.04,1.3.7,1.28,1.32,0,.13-.11.45-.22.62Z"></path><path class="cls-2" d="M8.88,70.88s1.07-1.03,2.02-1.26c0,0-.32-.69-.33-1.67-.01-.95.48-2.78-.7-3.48.5-1.27-1.01-2.41-1.59-3.17-.59-.78-.77-1.52-.77-1.52-.89.41-2.36.26-2.36.26,0,0-1.06,1.03-2.02,1.25,0,0,.32.69.33,1.67.01.95-.48,2.78.7,3.47-.5,1.27,1.02,2.42,1.59,3.17.59.78.77,1.52.77,1.52.89-.41,2.36-.25,2.36-.25ZM9.65,65.22c.15.14.34.41.38.54.19.6-.18,1.39-.87,1.63-.49.17-.96.1-1.36-.26,0,0,.16-.56.06-.85,0-.01.41.78,1.13.53.72-.25.5-.84.23-.8-.22.03-.32.27-.32.27,0,0-.24.11-.63-.63,0,0,.23.26.82.04.59-.22.56-.46.56-.46ZM9.38,64.66c.03.09-.24.26-.6.38-.36.12-.67.15-.71.07-.03-.09.24-.26.6-.39.36-.12.68-.15.71-.06ZM9.21,63.38c.05.12.07.46.03.66,0,0-.12-.21-.72-.02-.6.19-.62.54-.62.54-.14-.83.11-.89.11-.89,0,0,.23.13.42.01.23-.14.04-.74-.68-.49-.73.25-.56,1.13-.57,1.12-.1-.29-.57-.63-.57-.63.1-.52.42-.87.91-1.04.69-.24,1.46.16,1.68.74ZM7.38,66.49c-.14.05-.41-.37-.61-.95-.2-.57-.24-1.07-.1-1.12.14-.05.41.37.61.94.2.57.24,1.07.1,1.12ZM5.43,60.8c.34.1,1.21-.05,1.64-.2.01,0,.12.62.66,1.26.01.01-1.3-.03-1.56,1.14-.92-.76-1.94.08-1.94.08.03-.86-.27-1.41-.25-1.42.43-.15,1.24-.58,1.45-.87ZM4.39,65.71c-.15-.14-.34-.41-.38-.54-.19-.6.18-1.39.87-1.62.49-.17.96-.1,1.36.26,0,0-.16.56-.06.85,0,.01-.41-.78-1.13-.53-.72.25-.5.83-.23.8.22-.03.32-.27.32-.27,0,0,.23-.11.63.63,0,0-.23-.26-.81-.04-.59.22-.56.46-.56.46ZM4.61,66.3c-.03-.09.24-.26.6-.39.36-.13.68-.15.71-.06.03.09-.24.26-.6.39-.36.12-.67.15-.71.06ZM4.83,67.55c-.04-.12-.07-.46-.03-.66,0,0,.12.21.72.02.6-.19.62-.53.62-.53.15.83-.11.89-.11.89,0,0-.23-.13-.42-.01-.23.14-.04.74.68.49.73-.25.56-1.13.57-1.12.1.29.57.63.57.63-.09.52-.42.87-.91,1.04-.69.24-1.47-.16-1.68-.75ZM6.3,69.06s1.3.03,1.56-1.14c.92.76,1.93-.08,1.93-.07-.03.84.27,1.4.26,1.41-.43.15-1.24.58-1.45.87-.34-.1-1.21.05-1.64.2-.01,0-.12-.62-.66-1.26Z"></path><path class="cls-2" d="M24,75.58c-.78-.55-1.97-2.02-3.23-1.47-.73-1.15-2.55-.6-3.5-.57-.98.02-1.68-.27-1.68-.27-.19.96-1.18,2.06-1.18,2.06,0,0,.21,1.47-.17,2.37,0,0,.75.15,1.55.71.78.55,1.97,2.02,3.22,1.47.73,1.15,2.55.6,3.5.57.98-.02,1.68.27,1.68.27.19-.96,1.18-2.07,1.18-2.07,0,0-.21-1.47.17-2.37,0,0-.75-.15-1.55-.71ZM20.27,75.22c.11-.37.27-.64.36-.61.09.03.07.35-.04.71-.11.36-.27.64-.36.61-.09-.03-.07-.34.04-.71ZM20.94,77.31c-.04.14-.55.12-1.12-.06-.58-.18-1.01-.43-.97-.58.04-.14.55-.11,1.12.06.58.18,1.01.43.96.57ZM17.91,74.92c.21-.7.99-1.09,1.59-.92.13.03.41.21.55.36,0,0-.24-.02-.44.57-.2.6.07.81.07.81-.76-.37-.65-.61-.65-.61,0,0,.24-.11.26-.33.02-.27-.57-.47-.79.26-.23.74.58,1.12.57,1.12-.29-.09-.85.09-.85.09-.37-.39-.45-.86-.3-1.35ZM16.33,77.85c-.66-.52-1.29-.6-1.29-.62.13-.44.26-1.34.15-1.68.28-.22.67-1.01.81-1.45,0-.01.57.27,1.41.2.01,0-.79,1.04,0,1.93-1.16.3-1.07,1.62-1.08,1.61ZM18.5,78.55c-.17.61.05.72.05.72-.2.04-.54.04-.66,0-.59-.2-1.02-.96-.8-1.66.15-.5.49-.84,1.01-.95,0,0,.36.46.65.55.02,0-.87-.13-1.1.61-.22.73.38.89.51.66.11-.19-.03-.42-.03-.42,0,0,.05-.26.88-.14,0,0-.35.03-.52.64ZM19.53,78.83c-.11.36-.28.64-.36.61-.09-.03-.07-.35.04-.71.11-.36.27-.64.36-.61.09.03.07.35-.04.71ZM21.89,79.08c-.21.7-.99,1.09-1.59.92-.12-.04-.41-.22-.55-.36,0,0,.24.02.44-.57.2-.6-.07-.81-.07-.81.76.37.65.61.65.61,0,0-.24.11-.25.33-.02.27.57.47.79-.26.23-.74-.58-1.12-.57-1.12.29.09.85-.09.85-.09.37.38.45.85.3,1.35ZM21.71,77.33s-.36-.46-.65-.55c-.01,0,.87.13,1.1-.61.22-.73-.38-.89-.52-.66-.11.19.03.42.03.42,0,0-.05.26-.88.14,0,0,.35-.03.52-.63.17-.6-.05-.72-.05-.72.2-.04.54-.03.66,0,.6.2,1.02.96.81,1.66-.15.49-.48.84-1.01.95ZM24.61,78.45c-.28.22-.67,1.01-.81,1.45,0,.01-.57-.27-1.41-.2-.01,0,.79-1.04,0-1.93,1.16-.3,1.07-1.62,1.08-1.61.66.52,1.29.61,1.29.62-.13.44-.25,1.34-.15,1.68Z"></path><path class="cls-2" d="M47.29,75.33s-.99-1.1-1.18-2.06c0,0-.7.29-1.68.27-.95-.02-2.76-.58-3.5.57-1.25-.55-2.45.93-3.22,1.47-.8.56-1.55.71-1.55.71.38.9.17,2.37.17,2.37,0,0,.99,1.1,1.18,2.07,0,0,.7-.29,1.68-.27.95.02,2.77.58,3.5-.57,1.25.55,2.45-.92,3.22-1.47.8-.56,1.55-.71,1.55-.71-.38-.9-.17-2.37-.17-2.37ZM42.21,73.99c.6-.17,1.38.23,1.59.92.15.49.07.96-.3,1.35,0,0-.56-.18-.85-.09-.01,0,.8-.38.57-1.12-.22-.73-.82-.53-.79-.26.02.22.26.33.26.33,0,0,.1.24-.65.61,0,0,.27-.22.07-.81-.2-.6-.44-.57-.44-.57.14-.15.43-.33.55-.36ZM41.07,74.61c.09-.03.25.24.36.61.11.36.13.68.04.71-.09.03-.25-.25-.36-.61-.11-.36-.13-.68-.04-.71ZM41.73,76.74c.58-.18,1.08-.2,1.12-.06.04.14-.39.4-.97.58-.58.18-1.08.2-1.12.06-.04-.14.39-.4.97-.57ZM39.32,79.69c-.84-.06-1.41.22-1.41.2-.13-.44-.53-1.23-.81-1.45.11-.34-.01-1.25-.15-1.68,0-.01.62-.1,1.29-.62.01,0-.08,1.3,1.08,1.61-.79.9.01,1.94,0,1.93ZM39,76.38c-.21-.7.21-1.46.8-1.66.12-.04.46-.05.66,0,0,0-.22.12-.05.72.17.6.51.63.51.63-.83.12-.88-.14-.88-.14,0,0,.13-.23.03-.42-.13-.23-.74-.07-.51.66.23.74,1.11.61,1.1.61-.3.09-.65.55-.65.55-.52-.11-.85-.46-1-.95ZM41.41,80c-.6.17-1.38-.23-1.59-.92-.15-.5-.06-.97.3-1.35,0,0,.56.18.85.09.01,0-.8.38-.57,1.12.22.73.82.53.8.26-.02-.22-.26-.33-.26-.33,0,0-.1-.24.65-.61,0,0-.27.22-.07.81.2.6.44.57.44.57-.14.15-.43.33-.55.36ZM42.55,79.44c-.09.03-.25-.25-.36-.61-.11-.36-.13-.68-.04-.71.09-.03.25.25.36.61.11.36.13.68.04.71ZM43.82,79.27c-.12.04-.46.05-.66,0,0,0,.22-.11.05-.72-.17-.6-.52-.64-.52-.64.83-.11.88.14.88.14,0,0-.14.23-.03.42.13.23.74.07.52-.66-.23-.74-1.11-.6-1.1-.61.3-.09.65-.55.65-.55.52.11.86.45,1.01.95.21.7-.21,1.46-.8,1.66ZM45.38,77.85s.08-1.3-1.08-1.61c.79-.9-.01-1.93,0-1.93.84.06,1.41-.22,1.41-.2.13.44.53,1.23.81,1.45-.11.34.02,1.24.15,1.68,0,.01-.62.1-1.29.62Z"></path><path class="cls-2" d="M56.56,60.05s-1.47.15-2.36-.26c0,0-.18.74-.77,1.52-.57.75-2.09,1.9-1.59,3.17-1.18.69-.69,2.53-.7,3.48-.01.98-.33,1.67-.33,1.67.95.23,2.02,1.26,2.02,1.26,0,0,1.47-.16,2.36.25,0,0,.18-.74.77-1.52.57-.75,2.09-1.9,1.59-3.17,1.18-.69.69-2.52.7-3.47.01-.98.33-1.67.33-1.67-.95-.22-2.02-1.25-2.02-1.25ZM54.63,60.61c.43.15,1.3.29,1.64.2.21.29,1.01.72,1.45.87.01,0-.29.56-.26,1.42,0,0-1.01-.84-1.93-.08-.26-1.17-1.57-1.13-1.56-1.14.55-.65.65-1.27.66-1.26ZM52.5,63.38c.22-.59.99-.98,1.68-.74.49.17.82.51.91,1.04,0,0-.47.34-.57.63,0,.02.16-.87-.57-1.12-.72-.25-.91.35-.68.49.19.12.42-.01.42-.01,0,0,.25.06.11.89,0,0-.02-.35-.62-.54-.6-.19-.72.02-.72.02-.04-.2-.02-.54.03-.66ZM54.94,65.55c-.2.57-.47.99-.61.95-.14-.05-.09-.55.1-1.12.2-.57.47-.99.61-.94.14.05.1.55-.1,1.12ZM53.03,64.72c.36.13.63.3.6.39-.03.09-.35.06-.71-.07-.36-.12-.62-.29-.6-.38.03-.09.35-.06.71.06ZM51.67,65.76c.04-.12.23-.4.38-.54,0,0-.03.24.56.46.59.22.82-.04.82-.04-.4.74-.63.63-.63.63,0,0-.1-.24-.32-.27-.27-.03-.49.56.23.8.73.25,1.14-.54,1.14-.53-.1.29.06.85.06.85-.4.35-.87.42-1.36.26-.69-.24-1.06-1.03-.87-1.63ZM54.74,70.32c-.43-.15-1.3-.29-1.64-.2-.21-.29-1.01-.72-1.45-.87-.01,0,.29-.56.26-1.41,0-.02,1.01.83,1.93.07.26,1.17,1.57,1.13,1.56,1.14-.54.65-.65,1.27-.66,1.26ZM56.88,67.55c-.22.59-.99.98-1.68.75-.49-.17-.82-.51-.91-1.04,0,0,.47-.34.57-.63,0-.01-.16.87.57,1.12.72.25.91-.35.68-.49-.19-.12-.42.01-.42.01,0,0-.26-.06-.11-.89,0,0,.02.34.62.53.6.19.72-.02.72-.02.03.2.01.54-.03.66ZM56.39,66.24c-.36-.12-.63-.3-.6-.39.03-.09.35-.06.71.06.36.12.63.3.6.39-.03.09-.35.06-.71-.06ZM57.7,65.17c-.04.12-.23.4-.38.54,0,0,.03-.24-.56-.46-.59-.22-.82.04-.82.04.4-.74.63-.63.63-.63,0,0,.1.24.32.27.27.03.49-.56-.23-.8-.73-.25-1.14.54-1.14.53.1-.29-.06-.85-.06-.85.4-.36.87-.43,1.36-.26.69.24,1.06,1.03.87,1.62Z"></path><path class="cls-2" d="M59.35,48.02c.83-1.08-.31-2.6-.65-3.48-.35-.91-.32-1.67-.32-1.67-.97.15-2.34-.4-2.34-.4,0,0-1.31.7-2.29.65,0,0,.11.75-.14,1.7-.25.92-1.23,2.54-.29,3.53-.83,1.08.31,2.6.65,3.49.35.91.32,1.67.32,1.67.97-.15,2.34.41,2.34.41,0,0,1.31-.7,2.28-.65,0,0-.11-.75.14-1.7.25-.91,1.23-2.55.29-3.53ZM59.03,46.78c.01.13-.06.46-.15.64,0,0-.06-.24-.69-.22-.63.02-.74.35-.74.35.09-.84.35-.82.35-.82,0,0,.19.18.4.13.26-.07.24-.7-.51-.66-.77.04-.85.93-.86.92-.02-.31-.37-.77-.37-.77.24-.48.65-.72,1.16-.75.73-.04,1.36.56,1.41,1.18ZM58.83,48.06c0,.09-.3.18-.68.2-.38.02-.69-.04-.7-.13,0-.09.3-.19.68-.21.38-.02.69.04.7.13ZM56.4,49.27c-.15,0-.29-.47-.33-1.08-.03-.6.06-1.09.21-1.1.15,0,.29.47.32,1.08.03.6-.06,1.1-.21,1.1ZM54.47,43.7c.45-.02,1.35-.22,1.63-.44.3.19,1.18.29,1.63.26.01,0-.06.63.29,1.4,0,.01-1.24-.39-1.82.66-.68-.98-1.88-.45-1.88-.47.26-.8.13-1.42.14-1.42ZM54.8,45.75c.52-.03.95.17,1.24.62,0,0-.31.49-.29.8,0,.02-.18-.86-.95-.82-.76.04-.71.66-.44.71.22.03.38-.17.38-.17,0,0,.26-.04.43.78,0,0-.15-.31-.77-.27-.63.05-.66.29-.66.29-.11-.18-.22-.49-.22-.62-.02-.63.55-1.29,1.28-1.32ZM55.17,48.25c0,.09-.3.19-.68.21-.38.02-.69-.04-.7-.13,0-.1.3-.19.68-.21.38-.02.69.04.7.13ZM53.66,49.58c0-.13.06-.46.15-.64,0,0,.06.24.69.22.63-.02.74-.35.74-.35-.09.84-.35.82-.35.82,0,0-.19-.19-.4-.13-.26.07-.24.7.51.66.77-.04.85-.93.85-.92.02.31.38.77.38.77-.24.48-.65.72-1.16.75-.73.04-1.36-.56-1.41-1.18ZM58.21,52.67c-.45.02-1.35.22-1.63.43-.3-.19-1.18-.29-1.63-.26-.01,0,.06-.63-.29-1.4,0-.01,1.24.39,1.82-.66.68.99,1.88.45,1.88.47-.26.8-.13,1.42-.14,1.42ZM57.88,50.62c-.52.03-.95-.17-1.23-.62,0,0,.31-.49.29-.8,0-.02.18.86.94.82.76-.04.71-.67.44-.71-.22-.04-.38.17-.38.17,0,0-.26.04-.44-.78,0,0,.15.31.77.27.62-.05.66-.29.66-.29.11.18.21.49.22.62.02.63-.55,1.28-1.28,1.32Z"></path><path class="cls-2" d="M55.82,26.91c-.48-.85-.55-1.61-.55-1.61-.94.28-2.38-.07-2.38-.07,0,0-1.2.87-2.17.96,0,0,.22.73.09,1.7-.12.94-.86,2.69.21,3.54-.67,1.19.67,2.53,1.13,3.36.48.85.55,1.61.55,1.61.94-.28,2.37.08,2.37.08,0,0,1.2-.87,2.17-.96,0,0-.22-.73-.09-1.7.12-.94.86-2.69-.21-3.54.67-1.19-.67-2.53-1.13-3.36ZM56.45,29.08c.03.13,0,.46-.06.66,0,0-.09-.23-.71-.12-.62.11-.69.45-.69.45-.03-.84.23-.86.23-.86,0,0,.21.16.41.07.25-.11.14-.73-.6-.58-.76.15-.71,1.04-.72,1.03-.06-.3-.48-.71-.48-.71.16-.5.54-.8,1.05-.9.72-.14,1.43.36,1.56.97ZM56.44,30.38c.02.09-.27.23-.64.3-.37.07-.69.06-.71-.04-.02-.09.27-.23.64-.3.37-.07.69-.06.71.04ZM54.2,31.91c-.15.03-.36-.43-.47-1.02-.11-.59-.09-1.09.06-1.12.15-.03.36.43.47,1.02.11.59.09,1.1-.06,1.12ZM51.51,26.66c.45-.09,1.3-.4,1.55-.66.32.14,1.21.12,1.66.03.01,0,.03.63.48,1.34,0,.01-1.29-.21-1.71.91-.81-.88-1.93-.19-1.93-.2.15-.83-.07-1.42-.06-1.43ZM51.34,30.72c-.13-.16-.28-.46-.3-.58-.1-.62.37-1.35,1.08-1.49.51-.1.96.04,1.31.44,0,0-.24.53-.18.83,0,.01-.29-.83-1.05-.68-.74.15-.61.76-.34.76.22,0,.36-.22.36-.22,0,0,.25-.08.54.71,0,0-.19-.29-.8-.16-.61.13-.61.38-.61.38ZM51.49,31.34c-.02-.09.27-.22.64-.3.37-.07.69-.06.71.04.02.09-.27.22-.64.3-.37.07-.69.06-.71-.03ZM51.52,32.6c-.03-.13,0-.46.06-.66,0,0,.09.23.71.12.62-.11.68-.44.68-.44.03.84-.23.86-.23.86,0,0-.21-.16-.41-.07-.25.11-.14.73.6.58.76-.15.71-1.04.72-1.03.06.3.48.71.48.71-.17.51-.54.8-1.05.9-.71.14-1.43-.36-1.56-.97ZM54.91,35.68c-.33-.14-1.21-.12-1.66-.03-.01,0-.03-.63-.48-1.34,0-.01,1.29.21,1.71-.91.81.88,1.93.19,1.93.2-.15.83.07,1.42.06,1.43-.45.09-1.31.4-1.55.66ZM55.84,33.04c-.51.1-.96-.04-1.31-.44,0,0,.24-.53.18-.83,0-.01.29.83,1.05.68.75-.15.61-.76.34-.76-.22,0-.36.22-.36.22,0,0-.25.08-.54-.71,0,0,.19.29.8.16.61-.13.61-.38.61-.38.13.16.28.46.3.58.11.62-.37,1.35-1.08,1.49Z"></path><path class="cls-2" d="M18.62,31.18l-.51,1.31s-.07.18-.07.23c0,.11.16.08.23.08h.67c.05,0,.26.03.26-.06,0-.04-.06-.17-.07-.2l-.51-1.36Z"></path><path class="cls-2" d="M4.89,21.32s.25.61,1.88,1.46c.01,0-.56.24-.63.22-.07-.02.85.43,1.4.5l-.5.29s.67.22,1.52.22c.53.66,1.08,1.04,1.08,1.04,0,0-.09-.58-.08-.58.4.39,1.32.84,1.26.8-.06-.04-.23-.63-.22-.63,1.67.76,2.31.58,2.31.58-.1-.11-.21-.65-.21-.65.35.05,1.46-.06,1.46-.07-.44-.76-1.12-1.41-1.12-1.41.27-.04.55-.15.55-.15-.78-1.05-1.69-1.39-1.68-1.39.23-.04.49-.24.49-.24-.39-.26-1.43-.2-1.43-.2,0-.24.25-.31.25-.32-.24-.18-1.09-.03-1.09-.03,0,0-.42-.77-.71-.84,0,0,.09.24-.09.39,0,0-.6-.86-1.04-1,0,0,0,.33.11.54,0,0-.83-.5-2.14-.47,0,0,.1.29.23.52,0,0-.92-.14-1.79-.01,0,0,.59.95.84,1.19,0,0-.49.24-.64.23ZM8.09,21.76c.19-.4.91-.45,1.6-.11.69.34,1.09.94.9,1.33-.19.4-.91.45-1.6.11-.69-.34-1.09-.94-.9-1.33Z"></path><path class="cls-2" d="M2.21,39.3s-.4.37-.54.41c0,0,.42.51,2.22.85.01,0-.46.39-.53.39-.07,0,.94.16,1.49.07,0,0-.4.43-.4.43,0,0,.7.01,1.52-.23.7.48,1.33.68,1.33.68,0,0-.25-.53-.24-.53.5.26,1.51.42,1.44.39-.07-.02-.4-.54-.39-.54,1.82.24,2.38-.12,2.38-.12-.13-.08-.39-.56-.39-.56.35-.06,1.38-.49,1.38-.49-.64-.6-1.48-1.02-1.48-1.02.24-.12.49-.3.49-.3-1.05-.77-2.02-.84-2.02-.84.21-.1.4-.37.4-.37-.45-.14-1.43.23-1.43.23-.07-.24.15-.37.14-.38-.28-.11-1.05.29-1.05.29,0,0-.62-.61-.93-.6,0,0,.16.2.02.4,0,0-.82-.64-1.29-.65,0,0,.09.32.26.48,0,0-.94-.24-2.18.18,0,0,.18.25.37.44,0,0-.92.14-1.72.51,0,0,.84.73,1.16.89ZM4.85,39.2c.07-.44.74-.7,1.5-.58.76.12,1.32.57,1.25,1.01-.07.44-.74.7-1.5.58-.76-.12-1.32-.57-1.25-1.02Z"></path><path class="cls-2" d="M3.03,59.44c-.07.03.94-.17,1.42-.44,0,0-.23.54-.23.54,0,0,.62-.22,1.31-.73.82.21,1.52.18,1.52.18,0,0-.42-.41-.41-.41.56.07,1.56-.13,1.49-.12-.07,0-.56-.37-.55-.37,1.79-.4,2.19-.93,2.19-.93-.15-.03-.56-.39-.56-.39.31-.17,1.13-.93,1.12-.93-.81-.35-1.74-.45-1.74-.45.19-.19.35-.45.35-.45-1.25-.37-2.19-.09-2.18-.1.17-.17.25-.49.25-.49-.47.03-1.26.7-1.27.7-.14-.19.01-.4.01-.4-.3,0-.91.63-.91.63,0,0-.78-.37-1.06-.25,0,0,.22.13.16.37,0,0-.99-.33-1.44-.18,0,0,.2.27.41.36,0,0-.97.1-1.99.91,0,0,.25.17.5.29,0,0-.82.44-1.44,1.07,0,0,1.04.4,1.39.44,0,0-.25.49-.37.57,0,0,.57.34,2.38.04.01,0-.3.53-.37.55ZM5.05,56.22c.75-.15,1.44.09,1.52.52.09.44-.46.91-1.21,1.06-.75.15-1.44-.09-1.52-.53-.09-.44.46-.91,1.21-1.06Z"></path><path class="cls-2" d="M13.95,73.79c.52-.22,1.29-.89,1.23-.85-.06.04-.67-.04-.66-.04,1.35-1.24,1.43-1.9,1.43-1.9-.14.05-.68-.06-.68-.06.18-.31.52-1.37.51-1.37-.88.1-1.73.48-1.73.48.06-.26.08-.57.08-.57-1.27.31-1.94,1.02-1.94,1.01.06-.23-.03-.55-.03-.55-.39.26-.74,1.24-.75,1.24-.22-.1-.19-.35-.19-.35-.26.15-.47,1-.47,1,0,0-.86.07-1.04.31,0,0,.26,0,.32.24,0,0-1.02.22-1.33.57,0,0,.3.13.54.11,0,0-.79.57-1.27,1.78,0,0,.3.02.57,0,0,0-.49.8-.71,1.65,0,0,1.1-.17,1.43-.31,0,0,.03.54-.04.68,0,0,.66,0,2.08-1.16.01,0,0,.6-.05.66-.05.06.73-.62,1.01-1.1,0,0,.07.58.07.58,0,0,.43-.5.77-1.28.82-.23,1.41-.61,1.41-.61,0,0-.57-.15-.56-.15ZM12.45,73.77c-.58.5-1.29.64-1.58.31-.29-.33-.06-1.02.52-1.52.58-.51,1.29-.64,1.58-.31.29.33.06,1.02-.52,1.52Z"></path><path class="cls-2" d="M53.89,76.49c-.23-.85-.71-1.65-.71-1.65.27.03.57,0,.57,0-.48-1.21-1.28-1.78-1.27-1.78.24.03.54-.11.54-.11-.31-.35-1.33-.57-1.33-.57.06-.23.32-.23.32-.24-.18-.24-1.04-.31-1.04-.31,0,0-.2-.85-.47-1,0,0,.03.26-.19.35,0,0-.36-.98-.75-1.24,0,0-.09.32-.03.55,0,0-.67-.7-1.94-1.01,0,0,.02.3.08.57,0,0-.86-.37-1.73-.48,0,0,.32,1.07.51,1.37,0,0-.54.1-.68.06,0,0,.08.66,1.43,1.9,0,0-.6.08-.66.04-.06-.04.71.64,1.23.85,0,0-.56.15-.56.15,0,0,.59.38,1.41.61.34.78.77,1.28.77,1.28,0,0,.07-.58.07-.58.29.48,1.06,1.15,1.01,1.1-.05-.06-.05-.67-.04-.66,1.42,1.17,2.08,1.16,2.08,1.16-.06-.14-.04-.68-.04-.68.33.14,1.43.32,1.43.31ZM50.84,74.08c-.29.34-1,.2-1.58-.31-.58-.5-.82-1.19-.52-1.52.29-.33,1-.2,1.58.31.58.51.82,1.19.52,1.52Z"></path><path class="cls-2" d="M60.32,58.28c.35-.04,1.4-.44,1.39-.44-.62-.62-1.44-1.07-1.44-1.07.25-.11.5-.29.5-.29-1.02-.81-1.99-.91-1.99-.91.22-.09.41-.36.41-.36-.44-.15-1.44.18-1.44.17-.06-.23.16-.36.16-.37-.28-.11-1.06.25-1.06.25,0,0-.6-.64-.91-.63,0,0,.15.21.01.4,0,0-.8-.67-1.27-.7,0,0,.08.32.25.49,0,0-.93-.27-2.18.1,0,0,.17.25.35.45,0,0-.93.11-1.74.45,0,0,.81.76,1.12.93,0,0-.41.36-.56.39,0,0,.4.53,2.19.93.01,0-.47.37-.55.37-.07,0,.93.19,1.49.12,0,0-.41.41-.41.41,0,0,.7.03,1.52-.18.68.5,1.31.73,1.31.73,0,0-.23-.54-.23-.54.49.27,1.49.47,1.42.44-.07-.02-.38-.55-.37-.55,1.81.3,2.38-.04,2.38-.04-.12-.08-.37-.57-.37-.57ZM57.87,57.28c-.08.44-.77.67-1.52.53-.75-.15-1.3-.62-1.21-1.06.08-.44.77-.67,1.52-.52.76.15,1.3.62,1.21,1.06Z"></path><path class="cls-2" d="M57.39,36.81c-.47,0-1.29.66-1.29.65-.13-.2.03-.4.03-.4-.3-.01-.93.6-.93.6,0,0-.76-.39-1.05-.29,0,0,.22.14.14.38,0,0-.98-.36-1.43-.23,0,0,.19.27.4.37,0,0-.97.07-2.02.84,0,0,.24.18.49.3,0,0-.84.42-1.48,1.02,0,0,1.02.44,1.38.49,0,0-.27.48-.39.56,0,0,.56.36,2.38.12.01,0-.32.51-.39.54-.07.02.94-.14,1.44-.39,0,0-.25.53-.25.53,0,0,.63-.2,1.33-.68.81.24,1.51.23,1.51.23,0,0-.41-.43-.4-.43.55.09,1.56-.07,1.49-.07-.07,0-.55-.39-.53-.39,1.8-.34,2.22-.85,2.22-.85-.14-.04-.55-.41-.55-.41.32-.16,1.16-.89,1.16-.89-.8-.37-1.72-.51-1.72-.51.19-.19.37-.44.37-.44-1.24-.41-2.18-.17-2.18-.18.17-.16.26-.48.26-.48ZM55.61,40.22c-.76.12-1.43-.14-1.5-.58-.07-.44.49-.89,1.25-1.01.76-.12,1.43.14,1.5.58.07.44-.49.89-1.25,1.02Z"></path><path class="cls-2" d="M55.23,19.91c.13-.24.22-.52.22-.52-1.3-.03-2.14.48-2.13.47.12-.21.11-.54.11-.54-.45.15-1.04,1.01-1.04,1-.19-.15-.09-.39-.09-.39-.29.08-.71.84-.71.84,0,0-.84-.15-1.09.03,0,0,.25.07.25.32,0,0-1.04-.06-1.43.2,0,0,.26.21.49.24,0,0-.91.35-1.68,1.39,0,0,.29.1.55.15,0,0-.68.64-1.12,1.41,0,0,1.11.12,1.46.07,0,0-.11.53-.21.65,0,0,.64.18,2.31-.58.01,0-.15.58-.21.63-.06.04.86-.41,1.26-.8,0,0-.08.58-.08.58,0,0,.54-.38,1.08-1.04.85,0,1.52-.22,1.52-.22,0,0-.51-.29-.5-.29.56-.07,1.48-.52,1.41-.5-.07.02-.64-.21-.63-.22,1.63-.85,1.88-1.46,1.88-1.46-.15,0-.64-.23-.64-.23.26-.25.85-1.19.84-1.19-.87-.12-1.8.01-1.79.01ZM52.72,23.1c-.69.34-1.41.29-1.6-.11-.2-.4.21-1,.9-1.33.69-.34,1.41-.29,1.6.11.2.4-.21,1-.9,1.33Z"></path><path class="cls-2" d="M34.6,77.66l.33-.15s-.63-.57-.88-.57l.4-.31-.55-.39c.26-.48.26-1.02-.07-1.33-.25-.24-.62-.27-.99-.14-.11-.58-.65-.85-.65-.85l-.38.32c0-.33-.35-.87-.35-.87l-.31.25c0-.21-.43-.82-.43-.82,0,0-.22.85-.33.94l-.16-.33s-.57.63-.57.88l-.31-.4s-.47.64-.62.89c-.32-.07-.62-.02-.84.19-.29.27-.33.71-.16,1.13-.39.19-.58.56-.58.56l.32.38c-.33,0-.87.35-.87.35l.25.31c-.21,0-.82.43-.82.43,0,0,.85.22.94.33l-.33.15s.63.57.88.57l-.4.31.61.43c-.13.4-.08.8.19,1.05.22.21.54.26.86.18-.06.31-.02.6-.02.6l.63-.2s-.09.54.02.78c.11.25.65-.25.65-.25,0,0,.19.74.58.94.04.02.49-.49.49-.83l.4.56s.56-.56.56-.94c0-.04.49.22.49.22,0,0,.28-.56.19-.92.38.15.78.12,1.04-.12.28-.26.32-.67.19-1.07.27-.2.4-.45.4-.45l-.32-.38c.33,0,.87-.35.87-.35l-.25-.31c.21,0,.82-.43.82-.43,0,0-.85-.22-.94-.33ZM32.26,75.34c.48-.52,1.13-.62,1.46-.32.33.31.27.96-.21,1.48-.47.51-1.11.61-1.44.33-.02-.02-.04-.05-.06-.07-.27-.32-.2-.94.25-1.42ZM28.01,75.06c.33-.31.98-.2,1.46.32.43.46.52,1.04.29,1.38-.04.04-.08.08-.12.13-.34.27-.96.15-1.42-.34-.48-.52-.54-1.17-.21-1.48ZM29.49,80.51c-.48.52-1.13.62-1.46.31-.33-.3-.27-.96.21-1.48.48-.52,1.13-.62,1.46-.32.33.31.27.96-.21,1.48ZM30.88,79.36c-.8,0-1.44-.64-1.44-1.44,0-.34.12-.65.32-.9.01-.01.03-.02.04-.04.04-.04.07-.08.1-.12.26-.24.6-.38.98-.38s.72.14.97.38c.02.03.05.06.08.09,0,0,.02.02.03.02.22.25.36.59.36.95,0,.8-.65,1.44-1.44,1.44ZM33.72,80.85c-.33.3-.98.2-1.46-.32-.48-.52-.54-1.17-.21-1.48.33-.31.98-.2,1.46.31.48.52.54,1.17.21,1.48Z"></path><rect class="cls-2" x="24.73" y="35.75" width="3.97" height="1.36"></rect><rect class="cls-2" x="33.43" y="35.75" width="3.97" height="1.36"></rect><path class="cls-2" d="M25.31,43.3v-.87h-.78s-.21.21.78.87Z"></path><rect class="cls-2" x="25.55" y="42.43" width="2.19" height="1.17"></rect><rect class="cls-2" x="27.98" y="42.43" width="2.19" height="1.17"></rect><rect class="cls-2" x="30.41" y="42.43" width="2.19" height="1.17"></rect><rect class="cls-2" x="32.84" y="42.43" width="2.19" height="1.17"></rect><path class="cls-2" d="M37.46,42.74v-.32h-2.19v1.17h1.37l-.04-.18c.47-.3.72-.52.85-.67Z"></path><polygon class="cls-2" points="24.85 46.43 25.31 46.43 25.31 45.26 25.09 45.26 24.85 46.43"></polygon><rect class="cls-2" x="25.55" y="45.26" width="2.19" height="1.18"></rect><rect class="cls-2" x="27.98" y="45.26" width="2.19" height="1.18"></rect><rect class="cls-2" x="30.41" y="45.26" width="2.19" height="1.18"></rect><rect class="cls-2" x="32.84" y="45.26" width="2.19" height="1.18"></rect><polygon class="cls-2" points="35.27 45.26 35.27 46.43 37.24 46.43 36.99 45.26 35.27 45.26"></polygon><polygon class="cls-2" points="24.27 49.27 25.31 49.27 25.31 48.1 24.51 48.1 24.27 49.27"></polygon><rect class="cls-2" x="25.55" y="48.1" width="2.19" height="1.17"></rect><rect class="cls-2" x="32.84" y="48.1" width="2.19" height="1.17"></rect><rect class="cls-2" x="35.27" y="48.1" width="2.19" height="1.17"></rect><polygon class="cls-2" points="37.7 49.27 37.83 49.27 37.7 48.67 37.7 49.27"></polygon><polygon class="cls-2" points="23.83 51.45 24.46 52.11 25.31 52.11 25.31 50.94 23.93 50.94 23.83 51.45"></polygon><rect class="cls-2" x="25.55" y="50.94" width="2.19" height="1.17"></rect><rect class="cls-2" x="32.84" y="50.94" width="2.19" height="1.17"></rect><rect class="cls-2" x="35.27" y="50.94" width="2.19" height="1.17"></rect><polygon class="cls-2" points="38.28 51.44 38.17 50.94 37.7 50.94 37.7 52.02 38.28 51.44"></polygon><polygon class="cls-2" points="26.47 45.01 26.47 43.84 25.38 43.84 25.14 45.01 26.47 45.01"></polygon><rect class="cls-2" x="26.72" y="43.84" width="2.19" height="1.17"></rect><rect class="cls-2" x="29.15" y="43.84" width="2.19" height="1.17"></rect><rect class="cls-2" x="31.58" y="43.84" width="2.19" height="1.17"></rect><rect class="cls-2" x="34.01" y="43.84" width="2.18" height="1.17"></rect><polygon class="cls-2" points="36.44 43.84 36.44 45.01 36.94 45.01 36.7 43.84 36.44 43.84"></polygon><polygon class="cls-2" points="24.56 47.85 26.47 47.85 26.47 46.68 24.8 46.68 24.56 47.85"></polygon><rect class="cls-2" x="26.72" y="46.68" width="2.19" height="1.17"></rect><rect class="cls-2" x="34.01" y="46.68" width="2.18" height="1.17"></rect><polygon class="cls-2" points="36.44 46.68 36.44 47.85 37.53 47.85 37.29 46.68 36.44 46.68"></polygon><polygon class="cls-2" points="23.98 50.7 24.04 50.7 24.04 50.39 23.98 50.7"></polygon><rect class="cls-2" x="24.29" y="49.52" width="2.19" height="1.17"></rect><rect class="cls-2" x="26.72" y="49.52" width="2.19" height="1.17"></rect><rect class="cls-2" x="34.01" y="49.52" width="2.18" height="1.17"></rect><polygon class="cls-2" points="36.44 50.7 38.12 50.7 37.88 49.52 36.44 49.52 36.44 50.7"></polygon><rect class="cls-2" x="27.98" y="48.1" width="1.84" height="1.17"></rect><rect class="cls-2" x="31.96" y="48.1" width=".64" height="1.17"></rect><rect class="cls-2" x="31.96" y="50.94" width=".64" height="1.17"></rect><rect class="cls-2" x="27.98" y="50.94" width="1.84" height="1.17"></rect><polygon class="cls-2" points="29.83 47.26 31.33 47.26 31.33 46.68 29.15 46.68 29.15 47.85 29.83 47.85 29.83 47.26"></polygon><polygon class="cls-2" points="31.96 47.85 33.76 47.85 33.76 46.68 31.58 46.68 31.58 47.26 31.96 47.26 31.96 47.85"></polygon><rect class="cls-2" x="29.15" y="49.52" width=".68" height="1.17"></rect><rect class="cls-2" x="31.96" y="49.52" width="1.8" height="1.17"></rect><rect class="cls-2" x="25.36" y="37.36" width="1.24" height=".63"></rect><rect class="cls-2" x="26.82" y="37.36" width="1.25" height=".63"></rect><rect class="cls-2" x="25.36" y="38.99" width="1.24" height=".54"></rect><rect class="cls-2" x="26.83" y="38.99" width="1.24" height=".54"></rect><rect class="cls-2" x="26.08" y="38.23" width="1.25" height=".54"></rect><rect class="cls-2" x="25.36" y="38.23" width=".49" height=".54"></rect><rect class="cls-2" x="27.55" y="38.23" width=".53" height=".54"></rect><rect class="cls-2" x="29.7" y="35.72" width="1.24" height=".6"></rect><rect class="cls-2" x="31.19" y="35.72" width="1.23" height=".6"></rect><rect class="cls-2" x="29.7" y="37.24" width="1.24" height=".73"></rect><rect class="cls-2" x="31.19" y="37.24" width="1.23" height=".73"></rect><rect class="cls-2" x="30.36" y="36.56" width="1.39" height=".43"></rect><rect class="cls-2" x="30.36" y="38.23" width="1.39" height=".43"></rect><rect class="cls-2" x="31.19" y="38.91" width="1.23" height=".62"></rect><rect class="cls-2" x="32" y="36.56" width=".43" height=".43"></rect><rect class="cls-2" x="29.7" y="36.56" width=".41" height=".43"></rect><rect class="cls-2" x="32" y="38.23" width=".43" height=".43"></rect><rect class="cls-2" x="29.7" y="38.23" width=".41" height=".43"></rect><rect class="cls-2" x="29.7" y="38.91" width="1.24" height=".62"></rect><rect class="cls-2" x="24.49" y="39.78" width="13.11" height="2.4"></rect><rect class="cls-2" x="29.07" y="34.11" width="3.98" height="1.37"></rect><rect class="cls-2" x="34.06" y="37.36" width="1.24" height=".63"></rect><rect class="cls-2" x="35.52" y="37.36" width="1.25" height=".63"></rect><rect class="cls-2" x="34.06" y="38.99" width="1.24" height=".54"></rect><rect class="cls-2" x="35.54" y="38.99" width="1.24" height=".54"></rect><rect class="cls-2" x="34.78" y="38.23" width="1.25" height=".54"></rect><rect class="cls-2" x="34.06" y="38.23" width=".49" height=".54"></rect><rect class="cls-2" x="36.25" y="38.23" width=".53" height=".54"></rect><polygon class="cls-2" points="27.79 53.98 28.59 55.26 29.15 54.91 28.22 53.43 27.21 53.08 26.87 52.32 26.14 52.32 26.73 53.61 27.79 53.98"></polygon></g></svg>