<svg xmlns="http://www.w3.org/2000/svg" id="Capa_1" data-name="Capa 1" viewBox="0 0 175.73 103.38"><defs><style>      .cls-1 {        fill: #fff;        stroke-width: 0px;      }    </style></defs><path class="cls-1" d="M72.74,11.78h7.45l1.52,3.5h2.81L77.59.15h-2.32l-6.81,15.13h2.79l1.49-3.5ZM76.41,3.11h.08l2.81,6.49h-5.64l2.74-6.49Z"></path><polygon class="cls-1" points="96.52 12.94 89.39 12.94 89.39 .15 86.62 .15 86.62 15.28 96.52 15.28 96.52 12.94"></polygon><rect class="cls-1" x="99.39" y=".15" width="1.33" height="15.13"></rect><path class="cls-1" d="M107.71,14.52c1.15.65,2.46.98,3.79.93.98.02,1.96-.15,2.89-.5.84-.33,1.59-.84,2.22-1.49l-.56-1.08c-.61.59-1.32,1.06-2.1,1.4-.78.31-1.61.46-2.45.44-1.57.11-3.1-.53-4.14-1.71-.94-1.15-1.42-2.75-1.42-4.8,0-2.06.47-3.66,1.42-4.8,1.05-1.17,2.58-1.8,4.15-1.69.84-.02,1.67.13,2.45.44.78.34,1.49.82,2.1,1.4l.56-1.08c-.62-.65-1.37-1.16-2.21-1.49-.93-.35-1.91-.52-2.9-.5-1.32-.04-2.63.28-3.79.93-1.04.63-1.87,1.55-2.37,2.66-.57,1.29-.85,2.7-.81,4.11-.04,1.42.24,2.84.82,4.14.5,1.11,1.32,2.04,2.36,2.67Z"></path><path class="cls-1" d="M124.97.15l-6.59,15.13h1.4l1.71-4.03h8.24l1.75,4.03h1.39L126.17.15h-1.2ZM121.99,10.11l3.56-8.37h.05l3.65,8.37h-7.25Z"></path><polygon class="cls-1" points="146.6 13.08 136.94 .15 135.87 .15 135.87 15.28 137.09 15.28 137.09 2.32 146.76 15.28 147.82 15.28 147.82 .15 146.6 .15 146.6 13.08"></polygon><polygon class="cls-1" points="150.45 1.31 155.95 1.31 155.95 15.28 157.28 15.28 157.28 1.31 162.75 1.31 162.75 .15 150.45 .15 150.45 1.31"></polygon><polygon class="cls-1" points="174.87 14.15 166.76 14.15 166.76 8.18 174.4 8.18 174.4 7.04 166.76 7.04 166.76 1.29 174.87 1.29 174.87 .15 165.47 .15 165.47 15.28 174.87 15.28 174.87 14.15"></polygon><rect class="cls-1" x="39.49" y="25.19" width="2.77" height="15.13"></rect><polygon class="cls-1" points="47.56 27.35 57.23 40.31 58.29 40.31 58.29 25.19 57.06 25.19 57.06 38.11 47.41 25.19 46.33 25.19 46.33 40.31 47.56 40.31 47.56 27.35"></polygon><polygon class="cls-1" points="68.71 40.31 75.29 25.19 73.9 25.19 68.08 38.69 62.3 25.19 60.85 25.19 67.4 40.31 68.71 40.31"></polygon><polygon class="cls-1" points="87.27 39.17 79.16 39.17 79.16 33.21 86.8 33.21 86.8 32.07 79.16 32.07 79.16 26.32 87.27 26.32 87.27 25.19 77.87 25.19 77.87 40.31 87.27 40.31 87.27 39.17"></polygon><path class="cls-1" d="M92.57,25.55c-.77.31-1.44.84-1.93,1.52-.47.68-.71,1.49-.69,2.32-.05.97.32,1.91,1.02,2.58.89.73,1.97,1.2,3.1,1.37l2.19.45c.89.11,1.74.43,2.47.93.48.43.74,1.06.7,1.71.02.82-.36,1.59-1.01,2.07-.89.58-1.94.86-3,.79-.67,0-1.34-.05-2-.18-.56-.11-1.11-.3-1.62-.57-.53-.28-1.04-.61-1.51-.99l-.56,1.09c.74.61,1.58,1.07,2.49,1.37,1.04.33,2.13.49,3.22.47.98.02,1.95-.15,2.85-.52.74-.3,1.39-.8,1.85-1.45.44-.63.66-1.39.64-2.16.06-.94-.32-1.86-1.03-2.48-.95-.68-2.06-1.12-3.22-1.29l-2.21-.45c-.83-.12-1.6-.45-2.26-.97-.48-.47-.74-1.13-.7-1.8-.03-.9.38-1.75,1.09-2.29.87-.6,1.91-.9,2.96-.84.86-.01,1.72.13,2.53.42.79.31,1.51.77,2.13,1.36l.53-1.08c-.64-.64-1.41-1.12-2.26-1.43-.94-.33-1.93-.5-2.93-.48-.98-.03-1.95.14-2.86.51Z"></path><polygon class="cls-1" points="107.61 40.31 108.94 40.31 108.94 26.34 114.41 26.34 114.41 25.19 102.12 25.19 102.12 26.34 107.61 26.34 107.61 40.31"></polygon><polygon class="cls-1" points="124.29 38.73 118.3 25.19 117.14 25.19 117.14 40.31 118.36 40.31 118.36 28.05 123.81 40.31 124.78 40.31 130.22 28.05 130.22 40.31 131.45 40.31 131.45 25.19 130.31 25.19 124.29 38.73"></polygon><polygon class="cls-1" points="135.87 40.31 145.26 40.31 145.26 39.17 137.15 39.17 137.15 33.21 144.79 33.21 144.79 32.07 137.15 32.07 137.15 26.32 145.26 26.32 145.26 25.19 135.87 25.19 135.87 40.31"></polygon><polygon class="cls-1" points="159.57 38.11 149.92 25.19 148.84 25.19 148.84 40.31 150.07 40.31 150.07 27.35 159.75 40.31 160.8 40.31 160.8 25.19 159.57 25.19 159.57 38.11"></polygon><polygon class="cls-1" points="163.44 25.19 163.44 26.34 168.93 26.34 168.93 40.31 170.26 40.31 170.26 26.34 175.73 26.34 175.73 25.19 163.44 25.19"></polygon><path class="cls-1" d="M39.99,61.19h7.45l1.52,3.5h2.81l-6.92-15.15h-2.32l-6.85,15.13h2.79l1.52-3.47ZM43.67,52.52h.08l2.8,6.5h-5.64l2.75-6.5Z"></path><path class="cls-1" d="M54.46,52.98c-.6,1.29-.89,2.7-.86,4.13-.04,1.44.24,2.87.82,4.19.52,1.12,1.38,2.05,2.47,2.65,1.26.65,2.67.96,4.09.91.93,0,1.85-.1,2.76-.3.78-.15,1.53-.41,2.24-.75v-6.91h-5.19v1.11h4.01v4.93c-.53.21-1.07.38-1.63.5-.71.15-1.44.22-2.17.21-2.04,0-3.55-.56-4.51-1.67-.96-1.12-1.45-2.73-1.46-4.85,0-2.07.5-3.68,1.49-4.82,1.09-1.18,2.65-1.81,4.26-1.71.57,0,1.15.05,1.71.18.49.12.96.32,1.4.58.49.31.95.66,1.37,1.06l.58-1.08c-.63-.62-1.37-1.12-2.19-1.47-.91-.36-1.88-.53-2.85-.5-1.35-.04-2.68.28-3.86.93-1.07.62-1.93,1.55-2.47,2.67Z"></path><polygon class="cls-1" points="79.63 50.7 79.63 49.56 70.23 49.56 70.23 64.68 79.63 64.68 79.63 63.54 71.52 63.54 71.52 57.58 79.16 57.58 79.16 56.45 71.52 56.45 71.52 50.7 79.63 50.7"></polygon><polygon class="cls-1" points="84.43 51.73 94.11 64.68 95.16 64.68 95.16 49.56 93.94 49.56 93.94 62.49 84.28 49.56 83.22 49.56 83.22 64.68 84.43 64.68 84.43 51.73"></polygon><path class="cls-1" d="M105.96,50.61c.84-.02,1.67.13,2.45.44.78.34,1.49.82,2.1,1.4l.56-1.08c-.62-.65-1.37-1.16-2.21-1.49-.93-.35-1.91-.52-2.9-.5-1.32-.04-2.63.28-3.79.93-1.04.63-1.87,1.55-2.37,2.66-1.09,2.65-1.09,5.62,0,8.27.5,1.11,1.33,2.04,2.37,2.67,1.15.65,2.46.98,3.79.93.98.02,1.96-.15,2.89-.5.84-.33,1.6-.84,2.22-1.49l-.56-1.08c-.61.59-1.32,1.06-2.1,1.4-.78.31-1.61.46-2.45.44-1.57.11-3.1-.53-4.14-1.71-.94-1.15-1.42-2.75-1.42-4.8s.47-3.66,1.42-4.8c1.04-1.18,2.57-1.81,4.14-1.7Z"></path><polygon class="cls-1" points="118.72 57.1 113.72 49.56 112.18 49.56 118.01 58.18 118.01 64.68 119.35 64.68 119.35 58.21 125.2 49.56 123.72 49.56 118.72 57.1"></polygon><polygon class="cls-1" points="43.76 82.94 40.7 89.14 46.81 89.14 43.76 82.94"></polygon><polygon class="cls-1" points="85.96 82.94 82.9 89.14 89.02 89.14 85.96 82.94"></polygon><path class="cls-1" d="M0,74.36h1.35l9.51,19.91,8.32-8.32c-1.36-2.01-.83-4.75,1.18-6.11,2.01-1.36,4.75-.83,6.11,1.18s.83,4.75-1.18,6.11c-1.49,1.01-3.44,1.01-4.93,0l-9.98,9.99L0,75.39v28h104.82v-29.03H0ZM84.9,80.88h2.09l.06.12,7.48,15.1h-2.06l-2.54-5.1h-7.95l-2.54,5.1h-2.06l7.52-15.21ZM71.95,80.99h1.88v15.1h-1.88v-15.1ZM55.85,80.99h1.88v13.24h10.88v1.86h-12.79l.03-15.1ZM42.7,80.88h2.09l.06.12,7.51,15.1h-2.06l-2.54-5.1h-7.99l-2.54,5.1h-2.06l7.52-15.21Z"></path></svg>