<svg xmlns="http://www.w3.org/2000/svg" id="Capa_1" data-name="Capa 1" viewBox="0 0 1321.09 1106.79"><defs><style>      .cls-1 {        opacity: .05;      }      .cls-2 {        fill: #004fb8;        stroke-width: 0px;      }    </style></defs><g class="cls-1"><path class="cls-2" d="M925.15,943.64V260.14h-339.4v35.29c151.87,63.91,258.52,214.13,258.52,389.24s-106.66,325.32-258.52,389.24v32.86h452.56v-163.14h-113.16Z"></path><path class="cls-2" d="M1321.09,0v113.03h-169.61v90.62h113.02v113.03h-113.02v203.65h-113.17V113.45c0-62.66,50.8-113.45,113.45-113.45h169.33Z"></path><g><path class="cls-2" d="M651.88,330.82c3.2,2.09,6.44,4.11,9.59,6.28-3.15-2.17-6.38-4.2-9.59-6.28Z"></path><path class="cls-2" d="M690.29,358.66c.86.7,1.64,1.49,2.5,2.2-.85-.7-1.64-1.5-2.5-2.2Z"></path><path class="cls-2" d="M585.97,295.53c1.11.47,2.17,1.04,3.28,1.53-1.11-.49-2.16-1.06-3.28-1.53Z"></path><path class="cls-2" d="M742.96,410.75c2.49,2.9,5.01,5.77,7.42,8.74-2.41-2.97-4.93-5.84-7.42-8.74Z"></path><path class="cls-2" d="M619.19,311.49c3.5,1.84,6.91,3.81,10.35,5.76-3.44-1.94-6.85-3.91-10.35-5.76Z"></path><path class="cls-2" d="M841.01,634.38c.45,3.8.95,7.57,1.3,11.4-.35-3.83-.85-7.6-1.3-11.4Z"></path><path class="cls-2" d="M825.25,559.02c.1.31.16.64.26.94-.1-.31-.16-.63-.26-.94Z"></path><path class="cls-2" d="M725.47,391.51c-2.72-2.83-5.41-5.66-8.21-8.38,2.79,2.73,5.49,5.57,8.21,8.38Z"></path><path class="cls-2" d="M791.03,479.69c1.86,3.33,3.59,6.74,5.35,10.13-1.77-3.38-3.5-6.8-5.35-10.13Z"></path><path class="cls-2" d="M807.99,513.89c1.53,3.46,3.1,6.87,4.54,10.37-1.44-3.5-3.01-6.91-4.54-10.37Z"></path><path class="cls-2" d="M771.99,448.39c.44.66.82,1.36,1.26,2.01-.44-.66-.81-1.36-1.26-2.01Z"></path><path class="cls-2" d="M834.62,595.4c.8,3.7,1.44,7.44,2.14,11.17-.7-3.73-1.35-7.47-2.14-11.17Z"></path><path class="cls-2" d="M808.01,855.39c1.52-3.43,3.08-6.81,4.51-10.3-1.43,3.47-3,6.87-4.51,10.3Z"></path><path class="cls-2" d="M791.05,889.61c1.84-3.3,3.55-6.67,5.3-10.03-1.75,3.34-3.47,6.73-5.3,10.03Z"></path><path class="cls-2" d="M825.25,810.3c.09-.29.15-.59.24-.87-.09.29-.15.59-.24.87Z"></path><path class="cls-2" d="M743.11,958.42c2.41-2.83,4.86-5.6,7.2-8.5-2.34,2.88-4.79,5.67-7.2,8.5Z"></path><path class="cls-2" d="M834.62,773.93c.79-3.68,1.44-7.43,2.14-11.14-.7,3.71-1.34,7.46-2.14,11.14Z"></path><path class="cls-2" d="M772.02,920.9c.38-.57.7-1.17,1.08-1.73-.38.56-.7,1.16-1.08,1.73Z"></path><path class="cls-2" d="M717.39,986.1c2.7-2.64,5.29-5.37,7.91-8.08-2.62,2.7-5.22,5.44-7.91,8.08Z"></path><path class="cls-2" d="M619.49,1057.7c3.25-1.71,6.41-3.54,9.61-5.36-3.19,1.81-6.36,3.64-9.61,5.36Z"></path><path class="cls-2" d="M652.29,1038.26c3-1.96,6.03-3.86,8.98-5.88-2.95,2.03-5.98,3.93-8.98,5.88Z"></path><path class="cls-2" d="M690.4,1010.58c.59-.49,1.12-1.03,1.71-1.51-.59.49-1.12,1.03-1.71,1.51Z"></path><path class="cls-2" d="M585.75,943.64h113.13V423.29h-113.13v-127.84c-50.32-21.17-105.59-32.91-163.61-32.91C189,262.54,0,451.52,0,684.68s189,422.11,422.14,422.11c58.02,0,113.29-11.74,163.61-32.91v-130.24ZM229.57,684.68c0-106.37,86.19-192.61,192.57-192.61,31.77,0,61.65,7.84,88.1,21.47l-202.91,325.46c-47.14-35.11-77.76-91.06-77.76-154.32ZM343.88,860.53l201.72-323.6c42.25,35.33,69.11,88.38,69.11,147.75,0,106.37-86.19,192.58-192.57,192.58-27.88,0-54.33-6.08-78.26-16.72Z"></path><path class="cls-2" d="M841.01,734.95c.45-3.8.95-7.56,1.3-11.37-.35,3.81-.85,7.58-1.3,11.37Z"></path><path class="cls-2" d="M586.23,1073.69c.53-.21,1.03-.5,1.56-.71-.53.21-1.03.5-1.56.71Z"></path></g></g></svg>