<svg xmlns="http://www.w3.org/2000/svg" id="Capa_1" data-name="Capa 1" viewBox="0 0 115.22 103.82"><defs><style>      .cls-1 {        fill: none;        stroke: #00ea6d;        stroke-linecap: round;        stroke-linejoin: round;        stroke-width: 2.83px;      }    </style></defs><g id="g5899"><g id="g5905"><path id="path5907" class="cls-1" d="M74.23,24.21h24.7c2.1,0,3.8,1.7,3.8,3.8v57.56"></path></g><g id="g5909"><path id="path5911" class="cls-1" d="M12.49,85.57v-11.11"></path></g><g id="g5913"><path id="path5915" class="cls-1" d="M40.99,24.21h-24.7c-2.1,0-3.8,1.7-3.8,3.8v40.15"></path></g><g id="g5917"><path id="path5919" class="cls-1" d="M67.18,88.51h0c0,1.63-1.32,2.94-2.94,2.94h-13.26c-1.63,0-2.94-1.32-2.94-2.94s-1.32-2.94-2.94-2.94H12.05c-3.65,0-6.61,2.96-6.61,6.61s2.96,6.61,6.61,6.61h91.12c3.65,0,6.61-2.96,6.61-6.61s-2.96-6.61-6.61-6.61h-33.04c-1.63,0-2.94,1.32-2.94,2.94Z"></path></g><g id="g5921"><path id="path5923" class="cls-1" d="M34.48,33.24H12.49"></path></g><g id="g5925"><path id="path5927" class="cls-1" d="M102.73,33.24h-21.99"></path></g><g id="g5929"><path id="path5931" class="cls-1" d="M79.4,74.79h-43.59c-1.92,0-3.48-1.56-3.48-3.48h0c0-1.92,1.56-3.48,3.48-3.48h43.59c1.92,0,3.48,1.56,3.48,3.48h0c0,1.92-1.56,3.48-3.48,3.48Z"></path></g><g id="g5933"><path id="path5935" class="cls-1" d="M50.2,74.79v-6.96"></path></g><g id="g5937"><path id="path5939" class="cls-1" d="M39.35,41.37c0,3.92,1.24,7.56,3.35,10.53.03-.12.05-.23.07-.35.52-2.77-.1-5.79,1.11-8.34,1.22-2.55,4.05-4.09,5.07-6.72.76-1.96.36-4.22-.6-6.09-.6-1.17-1.4-2.21-2.27-3.2-4.11,3.35-6.73,8.45-6.73,14.16Z"></path></g><g id="g5941"><path id="path5943" class="cls-1" d="M68.04,26.39c-2.82,1.29-5.5,2.8-7.81,4.99-.82.78-1.63,1.7-1.77,2.83-.17,1.43.82,2.76,1.98,3.61,1.17.84,2.54,1.36,3.72,2.18,1.18.82,2.21,2.11,2.11,3.55-.13,1.99-2.06,3.08-2.57,4.89-.28.99,0,2.2.88,2.7.74.41,1.65.24,2.48.04,2.36-.58,4.76-1.21,7.07-2.05,1.11-2.35,1.73-4.98,1.73-7.76,0-6.21-3.1-11.69-7.83-14.99Z"></path></g><g id="g5945"><path id="path5947" class="cls-1" d="M57.61,23.11c-10.09,0-18.26,8.18-18.26,18.26s8.18,18.26,18.26,18.26,18.26-8.18,18.26-18.26-8.18-18.26-18.26-18.26Z"></path></g><g id="g5949"><path id="path5951" class="cls-1" d="M45.52,9.31c2.66-2.59,7.11-4.28,12.13-4.28s9.47,1.69,12.13,4.28"></path></g><g id="g5953"><path id="path5955" class="cls-1" d="M50.34,14.05c1.45-1.71,4.18-2.86,7.31-2.86s5.86,1.15,7.31,2.86"></path></g><g id="g5957"><path id="path5959" class="cls-1" d="M54.74,18.38c.46-.78,1.59-1.33,2.91-1.33s2.45.55,2.91,1.33"></path></g></g></svg>