<svg xmlns="http://www.w3.org/2000/svg" id="Capa_1" data-name="Capa 1" viewBox="0 0 115.22 103.82"><defs><style>      .cls-1 {        fill: none;        stroke: #00ea6d;        stroke-linecap: round;        stroke-linejoin: round;        stroke-width: 3.35px;      }    </style></defs><path class="cls-1" d="M39.34,11.74c1.02-2.49,4.17-7.51,12.96-7.51s12.07,5.25,13.02,7.67"></path><path class="cls-1" d="M44.91,77.49l-18.76-6.56c-.84-.25-1.58-.74-2.14-1.42l-11.09-12.52c-2.25-2.73-6.35-2.96-8.89-.5h0c-2.25,2.18-2.47,5.71-.51,8.15l4.16,4.75"></path><path class="cls-1" d="M48.22,76.16l-13.49-10.53c-2.38-1.86-2.8-5.3-.94-7.68h0c1.86-2.39,5.31-2.81,7.69-.94l10.14,7.95c1.11.87,2.56,1.12,3.91.71,3.86-1.17,16.8-3.46,20.31,8.87l.41,1.63"></path><path class="cls-1" d="M101.17,98.46h-13.79c-.68,0-1.23-.55-1.23-1.23v-26.61h15.02c.68,0,1.23.55,1.23,1.23v25.38c0,.68-.55,1.23-1.23,1.23Z"></path><polyline class="cls-1" points="62.25 95.99 72.53 94.47 86.15 94.47 86.15 70.62 74.5 70.62"></polyline><path class="cls-1" d="M59.8,72.75c-10.28.8-25.17,10.94-25.17,10.94l-11.46-4.53c-.81-.32-1.51-.88-2.01-1.6l-4.57-6.62c-2.01-2.91-6.07-3.49-8.82-1.26h0c-2.43,1.98-2.95,5.48-1.21,8.08l4.35,6.48c1.69,2.52,3.99,4.56,6.7,5.93l16.04,8.14c1.07.84,2.39,1.29,3.73,1.29.29,0,.59-.02.88-.06l17.03-2.52"></path><path class="cls-1" d="M80.12,26.12v18.24c0,2.66-2.16,4.82-4.82,4.82H29.29c-2.66,0-4.82-2.16-4.82-4.82v-27.46c0-2.66,2.16-4.82,4.82-4.82h46.01c2.66,0,4.82,2.16,4.82,4.82v2"></path><line class="cls-1" x1="64.19" y1="34.79" x2="40.36" y2="34.79"></line><path class="cls-1" d="M80.12,29.97c0,2.66-2.16,4.82-4.82,4.82h-3.55"></path><path class="cls-1" d="M33.27,34.79h-3.98c-2.66,0-4.82-2.16-4.82-4.82"></path><circle class="cls-1" cx="52.29" cy="23.84" r="3.43"></circle><g><path class="cls-1" d="M38.71,40.39h-3.7c-.76,0-1.38-.62-1.38-1.38v-8.94c0-.76.62-1.38,1.38-1.38h3.7c.76,0,1.38.62,1.38,1.38v8.94c0,.76-.62,1.38-1.38,1.38Z"></path><path class="cls-1" d="M69.58,40.39h-3.7c-.76,0-1.38-.62-1.38-1.38v-8.94c0-.76.62-1.38,1.38-1.38h3.7c.76,0,1.38.62,1.38,1.38v8.94c0,.76-.62,1.38-1.38,1.38Z"></path></g></svg>