<svg xmlns="http://www.w3.org/2000/svg" xmlns:xlink="http://www.w3.org/1999/xlink" id="Capa_1" data-name="Capa 1" viewBox="0 0 60.76 41.72"><defs><clipPath id="clippath"><rect x="-12.31" y="-616.56" width="1107.63" height="399.39" style="fill: none; stroke-width: 0px;"></rect></clipPath></defs><g style="clip-path: url(#clippath);"><image width="1703" height="869" transform="translate(-417.44 -932.5) scale(1.13)"></image></g><g><g id="g1796"><path id="path1798" d="M40.35,34.74h-19.94" style="fill: none; stroke: #00ea6d; stroke-linecap: round; stroke-linejoin: round; stroke-width: 1.42px;"></path></g><g id="g1800"><path id="path1802" d="M7.87,34.74H.71V4.29C.71,2.31,2.31.71,4.29.71h52.18c1.98,0,3.58,1.6,3.58,3.58v30.45h-7.16" style="fill: none; stroke: #00ea6d; stroke-linecap: round; stroke-linejoin: round; stroke-width: 1.42px;"></path></g><g id="g1804"><path id="path1806" d="M14.14,28.47H.71" style="fill: none; stroke: #00ea6d; stroke-linecap: round; stroke-linejoin: round; stroke-width: 1.42px;"></path></g><g id="g1808"><path id="path1810" d="M60.05,31.16h-8.29" style="fill: none; stroke: #00ea6d; stroke-linecap: round; stroke-linejoin: round; stroke-width: 1.42px;"></path></g><g id="g1812"><path id="path1814" d="M20.41,7.87v10.75H4.29V7.87h48.6v17.02h-2.45c-.73,0-1.45-.23-2.05-.65l-6.18-4.33c-1.2-.84-2.64-1.3-4.11-1.3h-14.1" style="fill: none; stroke: #00ea6d; stroke-linecap: round; stroke-linejoin: round; stroke-width: 1.42px;"></path></g><path id="path1816" d="M56.47,24.89h3.58V7.87h-3.58v17.02Z" style="fill: none; stroke: #00ea6d; stroke-linecap: round; stroke-linejoin: round; stroke-width: 1.42px;"></path><g id="g1818"><path id="path1820" d="M60.05,4.29H.71" style="fill: none; stroke: #00ea6d; stroke-linecap: round; stroke-linejoin: round; stroke-width: 1.42px;"></path></g><g id="g1822"><path id="path1824" d="M20.41,34.74c0,3.46-2.81,6.27-6.27,6.27s-6.27-2.81-6.27-6.27,2.81-6.27,6.27-6.27,6.27,2.81,6.27,6.27Z" style="fill: none; stroke: #00ea6d; stroke-linecap: round; stroke-linejoin: round; stroke-width: 1.42px;"></path></g><g id="g1826"><path id="path1828" d="M16.83,34.74c0,1.48-1.2,2.69-2.69,2.69s-2.69-1.2-2.69-2.69,1.2-2.69,2.69-2.69,2.69,1.2,2.69,2.69Z" style="fill: none; stroke: #00ea6d; stroke-linecap: round; stroke-linejoin: round; stroke-width: 1.42px;"></path></g><g id="g1830"><path id="path1832" d="M52.89,34.74c0,3.46-2.81,6.27-6.27,6.27s-6.27-2.81-6.27-6.27,2.81-6.27,6.27-6.27,6.27,2.81,6.27,6.27Z" style="fill: none; stroke: #00ea6d; stroke-linecap: round; stroke-linejoin: round; stroke-width: 1.42px;"></path></g><g id="g1834"><path id="path1836" d="M49.31,34.74c0,1.48-1.2,2.69-2.69,2.69s-2.69-1.2-2.69-2.69,1.2-2.69,2.69-2.69,2.69,1.2,2.69,2.69Z" style="fill: none; stroke: #00ea6d; stroke-linecap: round; stroke-linejoin: round; stroke-width: 1.42px;"></path></g></g></svg>