<svg xmlns="http://www.w3.org/2000/svg" id="Capa_1" data-name="Capa 1" viewBox="0 0 115.22 103.82"><defs><style>      .cls-1 {        fill: none;        stroke: #00ea6d;        stroke-linecap: round;        stroke-linejoin: round;        stroke-width: 3.1px;      }    </style></defs><path class="cls-1" d="M50.81,31.79h-2.35c-.48,0-.87-.39-.87-.87v-2.6c0-2.56,2.07-4.63,4.63-4.63h10.79c2.56,0,4.63,2.07,4.63,4.63v2.6c0,.48-.39.87-.87.87h-9.24"></path><path class="cls-1" d="M57.61,4.25h0c-2.89,0-5.15,2.49-4.86,5.37.23,2.29.18,1.8.41,4.09.23,2.29,2.15,4.03,4.45,4.03h0c2.3,0,4.22-1.74,4.45-4.03.13-1.3.29-2.95.41-4.09.29-2.87-1.97-5.37-4.86-5.37Z"></path><path class="cls-1" d="M98.89,87.65h-18.31c-.48,0-.87-.39-.87-.87v-2.6c0-2.56,2.07-4.63,4.63-4.63h10.79c2.56,0,4.63,2.07,4.63,4.63v2.6c0,.48-.39.87-.87.87Z"></path><path class="cls-1" d="M94.59,65.26c.29-2.87-1.97-5.37-4.86-5.37h0c-2.89,0-5.15,2.49-4.86,5.37.23,2.29.18,1.8.41,4.09.23,2.29,2.15,4.03,4.45,4.03h0c2.3,0,4.22-1.74,4.45-4.03.13-1.3.29-2.95.41-4.09Z"></path><path class="cls-1" d="M32.23,87.65h2.41c.48,0,.87-.39.87-.87v-2.6c0-2.56-2.07-4.63-4.63-4.63h-10.79c-2.56,0-4.63,2.07-4.63,4.63v2.6c0,.48.39.87.87.87h9.18"></path><path class="cls-1" d="M25.49,59.89h0c2.89,0,5.15,2.49,4.86,5.37-.23,2.29-.18,1.8-.41,4.09-.23,2.29-2.15,4.03-4.45,4.03h0c-2.3,0-4.22-1.74-4.45-4.03-.13-1.3-.29-2.95-.41-4.09-.29-2.87,1.97-5.37,4.86-5.37Z"></path><path class="cls-1" d="M28.26,52.84c.75-4.68,2.57-8.94,5.16-12.56.3-.42.91-.48,1.29-.13l1.94,1.79c.52.48,1.36.17,1.45-.52l1.82-13.43c.08-.6-.46-1.09-1.05-.96l-13.24,2.89c-.69.15-.92,1.01-.4,1.49l2.22,2.05c.33.3.38.81.1,1.16-3.72,4.85-6.31,10.67-7.31,17.11-.07.43.23.83.66.88l6.5.88c.41.06.79-.23.86-.64Z"></path><path class="cls-1" d="M88.72,52.09l3.08,1.98c.51.33,1.18.05,1.32-.54l2.98-13.22c.15-.69-.53-1.26-1.18-.99l-2.79,1.15c-.41.17-.89,0-1.1-.4-2.8-5.37-6.92-10.13-12.25-13.75-.45-.3-1.06-.18-1.35.28l-3.34,5.2c-.28.44-.16,1.02.27,1.31,3.85,2.64,6.89,6.05,9.05,9.88.26.45.05,1.03-.43,1.23l-2.44,1c-.65.27-.73,1.15-.14,1.53l2.63,1.69"></path><path class="cls-1" d="M73.99,55.51c0-.36-.21-.7-.53-.86l-2.24-1.12c-.23-.11-.4-.32-.48-.56-.19-.57-.42-1.12-.68-1.65-.11-.23-.14-.49-.06-.74l.79-2.38c.11-.34.03-.72-.23-.98l-2.73-2.73c-.26-.26-.64-.35-.98-.23l-2.38.79c-.24.08-.51.06-.74-.06-.53-.26-1.08-.49-1.65-.69-.24-.08-.45-.25-.56-.48l-1.12-2.24c-.16-.32-.49-.53-.86-.53h-3.86c-.36,0-.7.21-.86.53l-1.12,2.24c-.11.23-.32.4-.56.48-.57.19-1.12.42-1.65.69-.23.11-.49.14-.74.06l-2.38-.79c-.34-.11-.72-.03-.98.23l-2.73,2.73c-.26.26-.35.64-.23.98l.79,2.38c.08.24.06.51-.06.74-.26.53-.49,1.08-.68,1.65-.08.24-.25.45-.48.56l-2.24,1.12c-.32.16-.53.49-.53.86v3.86c0,.36.21.7.53.86l2.24,1.12c.23.11.4.32.48.56.19.57.42,1.12.68,1.65.11.23.14.49.06.74l-.79,2.38c-.11.34-.03.72.23.98l2.73,2.73c.26.26.64.35.98.23l2.38-.79c.24-.08.51-.06.74.06.53.26,1.08.49,1.65.68.24.08.45.25.56.48l1.12,2.24c.16.32.49.53.86.53h3.86c.36,0,.7-.21.86-.53l1.12-2.24c.11-.23.32-.4.56-.48.57-.19,1.12-.42,1.65-.68.23-.11.49-.14.74-.06l2.38.79c.34.11.72.03.98-.23l2.73-2.73c.26-.26.35-.64.23-.98l-.79-2.38c-.08-.24-.06-.51.06-.74.26-.53.49-1.08.68-1.65.08-.24.25-.45.48-.56l2.24-1.12c.32-.16.53-.49.53-.86v-3.86h0ZM57.61,63.39c-3.29,0-5.96-2.67-5.96-5.96s2.67-5.96,5.96-5.96,5.96,2.67,5.96,5.96-2.67,5.96-5.96,5.96Z"></path><path class="cls-1" d="M69.56,84.62c-4.34,1.92-8.9,2.72-13.35,2.51-.52-.02-.9-.5-.81-1.01l.45-2.6c.12-.69-.59-1.23-1.23-.93l-12.26,5.79c-.55.26-.67.98-.24,1.4l9.64,9.53c.5.49,1.35.22,1.47-.47l.51-2.98c.08-.44.47-.75.92-.72,6.09.48,12.38-.52,18.33-3.19.39-.18.57-.64.38-1.03l-2.8-5.93c-.18-.38-.62-.54-1-.37Z"></path></svg>