<svg xmlns="http://www.w3.org/2000/svg" id="Capa_1" data-name="Capa 1" viewBox="0 0 226.91 93.55"><defs><style>      .cls-1 {        fill: #fff;        fill-rule: evenodd;        stroke-width: 0px;      }    </style></defs><g><path class="cls-1" d="M112.61,51.68l-1.45-.86c-.91-.54-1.56-1.08-1.95-1.61-.38-.53-.57-1.14-.57-1.83,0-1.03.36-1.87,1.09-2.52.73-.64,1.68-.97,2.85-.97,1.12,0,2.14.31,3.07.92v2.13c-.96-.91-2-1.36-3.11-1.36-.63,0-1.14.14-1.54.43-.4.28-.6.64-.6,1.09,0,.39.15.76.44,1.11.29.34.77.7,1.43,1.08l1.46.85c1.63.95,2.45,2.17,2.45,3.64,0,1.05-.36,1.91-1.08,2.56-.71.66-1.65.99-2.79.99-1.32,0-2.52-.4-3.61-1.19v-2.39c1.03,1.28,2.23,1.93,3.59,1.93.6,0,1.1-.16,1.49-.49.4-.33.6-.74.6-1.24,0-.8-.59-1.56-1.76-2.27ZM96.97,44.06h1.91v11.41h6.02v1.71h-7.94v-13.12ZM89.68,44.06h1.92v7.45c0,1.01-.08,1.77-.23,2.28-.15.51-.33.94-.56,1.29-.22.34-.49.64-.8.91-1.06.9-2.44,1.34-4.15,1.34-1.74,0-3.14-.44-4.19-1.33-.32-.28-.59-.58-.81-.92-.22-.34-.4-.76-.55-1.26-.14-.49-.21-1.27-.21-2.33v-7.43h1.92v7.45c0,1.23.14,2.09.43,2.57.29.48.72.87,1.31,1.16.59.29,1.28.43,2.08.43,1.14,0,2.06-.29,2.78-.87.38-.31.65-.68.81-1.11.17-.43.25-1.15.25-2.19v-7.45ZM71.13,45.72h-1.98v4.1h2.1c.78,0,1.38-.18,1.8-.54.42-.36.63-.88.63-1.55,0-1.35-.85-2.02-2.55-2.02ZM67.22,57.18v-13.14h4.24c1.28,0,2.29.34,3.05,1.01.76.68,1.14,1.58,1.14,2.72,0,.76-.19,1.44-.58,2.03-.39.59-.92,1.02-1.6,1.29-.68.26-1.65.39-2.91.39h-1.42v5.69h-1.92ZM59.81,44.06h1.78v13.12h-1.92v-10.21l-4.12,5.07h-.35l-4.15-5.07v10.21h-1.91v-13.12h1.8l4.45,5.39,4.43-5.39ZM40.83,44.06h1.91v13.12h-1.91v-13.12Z"></path><path class="cls-1" d="M216.9,44.06h7.58v1.67h-5.67v4h5.47v1.68h-5.47v4.08h5.85v1.67h-7.76v-13.1ZM200.77,44.05h11.17v1.67h-4.66v11.47h-1.92v-11.47h-4.58v-1.67ZM196.09,44.06h1.82v13.12h-1.65l-8.94-10.09v10.09h-1.8v-13.12h1.55l9.02,10.18v-10.18ZM176.27,46.87l-4.43,10.31h-1.96l5.74-13.19h1.35l5.98,13.19h-1.96l-4.72-10.31ZM166.89,54.14v2.07c-1.4.75-3.02,1.13-4.86,1.13-1.49,0-2.76-.29-3.8-.88-1.04-.59-1.86-1.4-2.47-2.43-.61-1.03-.91-2.15-.91-3.35,0-1.91.69-3.51,2.08-4.82,1.39-1.3,3.1-1.95,5.14-1.95,1.4,0,2.96.36,4.68,1.08v2.02c-1.56-.88-3.09-1.31-4.58-1.31-1.53,0-2.8.48-3.82,1.43-1.01.95-1.51,2.13-1.51,3.56s.5,2.62,1.49,3.55c1,.93,2.27,1.39,3.82,1.39s3.2-.49,4.75-1.46ZM149.28,44.06h1.91v13.12h-1.91v-13.12ZM137.07,44.06h1.91v11.41h6.02v1.71h-7.94v-13.12ZM126.26,46.87l-4.43,10.31h-1.96l5.74-13.19h1.35l5.98,13.19h-1.96l-4.72-10.31Z"></path></g><g><polygon class="cls-1" points="17.66 38.71 21.14 38.71 10.67 62.22 12.99 62.22 23.22 38.71 25.66 38.71 33.12 55.16 33.12 31.34 2.24 31.34 2.24 62.22 7.2 62.22 17.66 38.71"></polygon><polygon class="cls-1" points="16.53 62.22 32.78 62.22 24.4 43.91 16.53 62.22"></polygon></g></svg>