<svg xmlns="http://www.w3.org/2000/svg" id="Capa_1" data-name="Capa 1" viewBox="0 0 115.22 103.82"><defs><style>      .cls-1 {        fill: none;        stroke: #00ea6d;        stroke-linecap: round;        stroke-linejoin: round;        stroke-width: 3.13px;      }    </style></defs><g id="g283"><g id="g289"><path id="path291" class="cls-1" d="M57.61,57.41c6.43,0,11.68-5.25,11.68-11.68s-5.25-11.68-11.68-11.68-11.68,5.25-11.68,11.68,5.25,11.68,11.68,11.68Z"></path></g><g id="g293"><path id="path295" class="cls-1" d="M66.72,76.46h2.59c2.95,0,5.36-2.41,5.36-5.36v-6.63c0-5.47-2.6-10.35-6.63-13.49M47.17,50.98c-4.03,3.13-6.63,8.02-6.63,13.49v6.63c0,2.95,2.41,5.36,5.36,5.36h2.61"></path></g><g id="g297"><path id="path299" class="cls-1" d="M69.14,47.63c.84.23,1.74.35,2.65.35,5.69,0,10.31-4.62,10.31-10.31s-4.61-10.31-10.31-10.31c-4.72,0-8.69,3.17-9.92,7.49"></path></g><g id="g301"><path id="path303" class="cls-1" d="M74.68,64.47v.31h7.44c2.6,0,4.73-2.13,4.73-4.73v-5.85c0-4.82-2.3-9.14-5.86-11.89"></path></g><g id="g305"><path id="path307" class="cls-1" d="M53.35,34.85c-1.22-4.32-5.2-7.49-9.92-7.49-5.69,0-10.3,4.61-10.3,10.31s4.61,10.31,10.3,10.31c.92,0,1.81-.12,2.65-.35"></path></g><g id="g309"><path id="path311" class="cls-1" d="M34.22,42.31c-3.56,2.76-5.85,7.07-5.85,11.89v5.85c0,2.6,2.13,4.73,4.72,4.73h7.45v-.31c0-5.47,2.6-10.35,6.63-13.49"></path></g><g id="g313"><path id="path315" class="cls-1" d="M57.61,76.46h0"></path></g><g id="g317"><path id="path319" class="cls-1" d="M66.31,13.1c4.48,1,8.67,2.76,12.43,5.13l3.35-3.34c1.99-1.99,5.24-1.99,7.23,0l5.29,5.28c1.99,1.99,1.99,5.25,0,7.23l-3.34,3.34c2.35,3.73,4.09,7.88,5.1,12.32h4.7c2.82,0,5.12,2.3,5.12,5.11v7.47c0,2.81-2.3,5.11-5.12,5.11h-4.72c-1.01,4.41-2.75,8.53-5.08,12.24l3.34,3.34c1.99,1.99,1.99,5.24,0,7.23l-5.29,5.28c-1.99,1.99-5.24,1.99-7.23,0l-3.35-3.34c-3.72,2.34-7.87,4.09-12.29,5.09v4.76c0,2.82-2.3,5.12-5.11,5.12h-7.47c-2.82,0-5.11-2.3-5.11-5.12v-4.76c-4.42-1.01-8.55-2.75-12.27-5.09l-3.34,3.34c-1.99,1.99-5.25,1.99-7.23,0l-5.28-5.28c-1.99-1.99-1.99-5.25,0-7.23l3.34-3.34c-2.34-3.71-4.07-7.84-5.08-12.24h-4.75c-2.82,0-5.11-2.3-5.11-5.11v-7.47c0-2.82,2.3-5.11,5.11-5.11h4.73c.99-4.38,2.71-8.49,5.02-12.19l-3.37-3.37c-1.99-1.99-1.99-5.25,0-7.23l5.29-5.28c1.99-1.99,5.24-1.99,7.23,0l3.32,3.32c3.71-2.36,7.84-4.11,12.24-5.13v-4.73c0-2.82,2.3-5.11,5.11-5.11h7.47c2.82,0,5.11,2.3,5.11,5.11v4.65Z"></path></g></g></svg>