<svg xmlns="http://www.w3.org/2000/svg" id="Capa_1" data-name="Capa 1" viewBox="0 0 115.22 103.82"><defs><style>      .cls-1 {        fill: none;        stroke: #00ea6d;        stroke-linecap: round;        stroke-linejoin: round;        stroke-width: 2.83px;      }    </style></defs><g id="g4609"><g id="g4615"><path id="path4617" class="cls-1" d="M29.33,11.97L53.57,2.38c2.4-.95,5.67-.95,8.08,0l24.23,9.58"></path></g><g id="g4619"><path id="path4621" class="cls-1" d="M57.61,85.14v5.86"></path></g><g id="g4623"><path id="path4625" class="cls-1" d="M57.61,102.15c2.71,0,4.93-2.21,4.93-4.91s-2.22-4.92-4.93-4.92-4.92,2.21-4.92,4.92,2.21,4.91,4.92,4.91Z"></path></g><g id="g4627"><path id="path4629" class="cls-1" d="M83.2,50.33h-14.78M94.85,50.33h-3.31"></path></g><g id="g4631"><path id="path4633" class="cls-1" d="M73.11,57.96h-4.69M94.85,57.96h-15.49"></path></g><g id="g4635"><path id="path4637" class="cls-1" d="M81.69,65.58h-13.27M94.85,65.58h-6.91"></path></g><g id="g4639"><path id="path4641" class="cls-1" d="M72.82,73.21h-4.41M94.85,73.21h-15.77"></path></g><g id="g4643"><path id="path4645" class="cls-1" d="M35.54,35.4c-1.67.43-3.24,1.09-4.68,1.93l-1.35-1.35c-.64-.64-1.7-.64-2.34,0l-3.91,3.9c-.65.65-.65,1.7,0,2.34l1.35,1.35c-.86,1.44-1.52,3-1.94,4.66h-1.91c-.92,0-1.66.75-1.66,1.66v5.52c0,.91.74,1.66,1.66,1.66h1.91c.42,1.66,1.08,3.23,1.94,4.66l-1.35,1.35c-.65.64-.65,1.69,0,2.34l3.91,3.9c.64.64,1.7.64,2.34,0l1.35-1.35c1.45.85,3.02,1.51,4.68,1.93v1.9c0,.91.74,1.66,1.66,1.66h5.54c.91,0,1.65-.75,1.65-1.66v-1.9c1.67-.43,3.24-1.08,4.68-1.93l1.35,1.35c.65.64,1.7.64,2.34,0l3.91-3.9c.65-.65.65-1.7,0-2.34l-1.35-1.35c.86-1.44,1.52-3,1.94-4.66h1.91c.91,0,1.65-.75,1.65-1.66v-5.52c0-.91-.74-1.66-1.65-1.66h-1.91c-.42-1.66-1.08-3.23-1.94-4.66l1.35-1.35c.65-.64.65-1.69,0-2.34l-3.91-3.9c-.64-.64-1.69-.64-2.34,0l-1.35,1.35c-1.44-.85-3.02-1.51-4.68-1.93v-1.9c0-.91-.74-1.65-1.65-1.65h-5.54c-.92,0-1.66.74-1.66,1.65v1.9Z"></path></g><g id="g4647"><path id="path4649" class="cls-1" d="M39.96,63.21c5.82,0,10.57-4.74,10.57-10.55s-4.75-10.54-10.57-10.54-10.57,4.74-10.57,10.54,4.75,10.55,10.57,10.55Z"></path></g><g id="g4651"><path id="path4653" class="cls-1" d="M51.46,22.89H9.54c-2.06,0-3.75-1.69-3.75-3.74v-3.44c0-2.06,1.69-3.74,3.75-3.74h96.13c2.06,0,3.75,1.69,3.75,3.74v3.44c0,2.06-1.69,3.74-3.75,3.74h-46.96"></path></g><g id="g4655"><path id="path4657" class="cls-1" d="M105.68,22.89v61.31c0,.52-.42.94-.94.94H10.48c-.51,0-.93-.42-.93-.94V22.89"></path></g><g id="g4659"><path id="path4661" class="cls-1" d="M78.13,42.29h-8.06c-.9,0-1.65-.74-1.65-1.64v-7.4c0-.9.74-1.64,1.65-1.64h23.13c.91,0,1.65.74,1.65,1.64v7.4c0,.91-.74,1.64-1.65,1.64h-7.81"></path></g></g></svg>