<svg xmlns="http://www.w3.org/2000/svg" id="Capa_1" data-name="Capa 1" viewBox="0 0 226.91 93.55"><defs><style>      .cls-1 {        fill: #fff;        stroke-width: 0px;      }    </style></defs><g id="Dise&#xF1;o"><g><g><path class="cls-1" d="M57.12,69.46V29.7h-19.74v2.05c8.83,3.72,15.04,12.45,15.04,22.64s-6.2,18.92-15.04,22.64v1.91h26.32v-9.49h-6.58Z"></path><path class="cls-1" d="M80.15,14.57v6.57h-9.86v5.27h6.57v6.57h-6.57v11.84h-6.58v-23.66c0-3.64,2.95-6.6,6.6-6.6h9.85Z"></path><g><path class="cls-1" d="M41.23,33.81c.19.12.37.24.56.37-.18-.13-.37-.24-.56-.37Z"></path><path class="cls-1" d="M43.46,35.43s.1.09.15.13c-.05-.04-.1-.09-.15-.13Z"></path><path class="cls-1" d="M37.4,31.76c.06.03.13.06.19.09-.06-.03-.13-.06-.19-.09Z"></path><path class="cls-1" d="M46.53,38.46c.14.17.29.34.43.51-.14-.17-.29-.34-.43-.51Z"></path><path class="cls-1" d="M39.33,32.69c.2.11.4.22.6.33-.2-.11-.4-.23-.6-.33Z"></path><path class="cls-1" d="M52.23,51.47c.03.22.06.44.08.66-.02-.22-.05-.44-.08-.66Z"></path><path class="cls-1" d="M51.31,47.09s0,.04.02.05c0-.02,0-.04-.02-.05Z"></path><path class="cls-1" d="M45.51,37.34c-.16-.16-.31-.33-.48-.49.16.16.32.32.48.49Z"></path><path class="cls-1" d="M49.32,42.47c.11.19.21.39.31.59-.1-.2-.2-.4-.31-.59Z"></path><path class="cls-1" d="M50.31,44.46c.09.2.18.4.26.6-.08-.2-.18-.4-.26-.6Z"></path><path class="cls-1" d="M48.21,40.65s.05.08.07.12c-.03-.04-.05-.08-.07-.12Z"></path><path class="cls-1" d="M51.86,49.2c.05.22.08.43.12.65-.04-.22-.08-.43-.12-.65Z"></path><path class="cls-1" d="M50.31,64.32c.09-.2.18-.4.26-.6-.08.2-.17.4-.26.6Z"></path><path class="cls-1" d="M49.32,66.31c.11-.19.21-.39.31-.58-.1.19-.2.39-.31.58Z"></path><path class="cls-1" d="M51.31,61.7s0-.03.01-.05c0,.02,0,.03-.01.05Z"></path><path class="cls-1" d="M46.53,70.32c.14-.16.28-.33.42-.49-.14.17-.28.33-.42.49Z"></path><path class="cls-1" d="M51.86,59.59c.05-.21.08-.43.12-.65-.04.22-.08.43-.12.65Z"></path><path class="cls-1" d="M48.22,68.13s.04-.07.06-.1c-.02.03-.04.07-.06.1Z"></path><path class="cls-1" d="M45.04,71.93c.16-.15.31-.31.46-.47-.15.16-.3.32-.46.47Z"></path><path class="cls-1" d="M39.34,76.09c.19-.1.37-.21.56-.31-.19.11-.37.21-.56.31Z"></path><path class="cls-1" d="M41.25,74.96c.17-.11.35-.22.52-.34-.17.12-.35.23-.52.34Z"></path><path class="cls-1" d="M43.47,73.35s.07-.06.1-.09c-.03.03-.07.06-.1.09Z"></path><path class="cls-1" d="M37.38,69.46h6.58v-30.26h-6.58v-7.44c-2.93-1.23-6.14-1.91-9.52-1.91-13.56,0-24.55,10.99-24.55,24.55s10.99,24.55,24.55,24.55c3.37,0,6.59-.68,9.52-1.91v-7.57ZM16.67,54.39c0-6.19,5.01-11.2,11.2-11.2,1.85,0,3.59.46,5.12,1.25l-11.8,18.93c-2.74-2.04-4.52-5.3-4.52-8.98ZM23.31,64.62l11.73-18.82c2.46,2.06,4.02,5.14,4.02,8.59,0,6.19-5.01,11.2-11.2,11.2-1.62,0-3.16-.35-4.55-.97Z"></path><path class="cls-1" d="M52.23,57.32c.03-.22.06-.44.08-.66-.02.22-.05.44-.08.66Z"></path><path class="cls-1" d="M37.41,77.02s.06-.03.09-.04c-.03.01-.06.03-.09.04Z"></path></g></g><g><g><path class="cls-1" d="M107.18,59.86h-8.85c-.08,0-.12.04-.12.12v7.34c0,.08.04.12.12.12h5.95c.2,0,.3.1.3.3v1.24c0,.2-.1.3-.3.3h-5.95c-.08,0-.12.04-.12.12v9.06c0,.2-.1.3-.3.3h-1.51c-.2,0-.3-.1-.3-.3v-20.12c0-.2.1-.3.3-.3h10.77c.2,0,.3.1.3.3v1.24c0,.2-.1.3-.3.3Z"></path><path class="cls-1" d="M113.17,78.21c-.92-.51-1.63-1.23-2.13-2.16-.5-.93-.75-2-.75-3.23v-14.5c0-.2.1-.3.3-.3h1.51c.2,0,.3.1.3.3v14.62c0,1.26.36,2.28,1.09,3.05.73.77,1.69,1.15,2.87,1.15s2.14-.39,2.87-1.15c.73-.77,1.1-1.78,1.1-3.05v-14.62c0-.2.1-.3.3-.3h1.51c.2,0,.3.1.3.3v14.5c0,1.22-.25,2.3-.75,3.23-.5.93-1.21,1.65-2.13,2.16-.92.51-1.98.77-3.18.77s-2.26-.26-3.18-.77Z"></path><path class="cls-1" d="M138.19,58.32v1.24c0,.2-.1.3-.3.3h-4.82c-.08,0-.12.04-.12.12v18.47c0,.2-.1.3-.3.3h-1.51c-.2,0-.3-.1-.3-.3v-18.47c0-.08-.04-.12-.12-.12h-4.65c-.2,0-.3-.1-.3-.3v-1.24c0-.2.1-.3.3-.3h11.81c.2,0,.3.1.3.3Z"></path><path class="cls-1" d="M144.48,78.21c-.92-.51-1.63-1.23-2.13-2.16-.5-.93-.75-2-.75-3.23v-14.5c0-.2.1-.3.3-.3h1.51c.2,0,.3.1.3.3v14.62c0,1.26.36,2.28,1.09,3.05.73.77,1.69,1.15,2.87,1.15s2.14-.39,2.87-1.15c.73-.77,1.1-1.78,1.1-3.05v-14.62c0-.2.1-.3.3-.3h1.51c.2,0,.3.1.3.3v14.5c0,1.22-.25,2.3-.75,3.23-.5.93-1.21,1.65-2.13,2.16-.92.51-1.98.77-3.18.77s-2.26-.26-3.18-.77Z"></path><path class="cls-1" d="M168.26,78.5l-3.67-9.14c-.02-.06-.06-.09-.12-.09h-3.82c-.08,0-.12.04-.12.12v9.06c0,.2-.1.3-.3.3h-1.51c-.2,0-.3-.1-.3-.3v-20.12c0-.2.1-.3.3-.3h6.27c1.02,0,1.94.24,2.74.71s1.42,1.14,1.86,2.01c.44.87.67,1.87.67,2.99,0,1.34-.33,2.49-.98,3.43s-1.54,1.58-2.66,1.89c-.08.04-.1.09-.06.15l3.82,9.17.03.12c0,.16-.09.24-.27.24h-1.57c-.16,0-.27-.08-.33-.24ZM160.53,59.98v7.49c0,.08.04.12.12.12h4.08c1.02,0,1.85-.35,2.49-1.06.63-.71.95-1.64.95-2.78s-.32-2.1-.95-2.81c-.63-.71-1.46-1.06-2.49-1.06h-4.08c-.08,0-.12.04-.12.12Z"></path><path class="cls-1" d="M184.5,78.48l-.98-3.7c-.02-.06-.07-.09-.15-.09h-7.07c-.08,0-.13.03-.15.09l-.98,3.7c-.04.18-.15.27-.33.27h-1.54c-.1,0-.17-.03-.22-.09-.05-.06-.06-.14-.04-.24l5.53-20.12c.04-.18.15-.27.33-.27h1.89c.18,0,.29.09.33.27l5.53,20.12.03.09c0,.16-.1.24-.3.24h-1.57c-.18,0-.29-.09-.33-.27ZM176.67,72.93s.06.04.1.04h6.13s.07-.01.1-.04c.03-.03.03-.05.01-.07l-3.14-11.9s-.04-.06-.06-.06c-.02,0-.04.02-.06.06l-3.11,11.9s-.01.04.01.07Z"></path></g><path id="ALICANTE" class="cls-1" d="M106.92,52.1l-.74-3.17c-.02-.09-.08-.13-.16-.13h-6.05c-.09,0-.14.04-.16.13l-.74,3.17c-.06.21-.2.32-.42.32h-3.91c-.28,0-.39-.14-.32-.42l5.82-21.89c.07-.22.22-.32.46-.32h4.69c.24,0,.39.1.45.32l5.82,21.89.03.13c0,.19-.12.29-.36.29h-3.95c-.24,0-.39-.11-.45-.32M100.71,45.22s.09.05.13.05h4.27s.09-.02.13-.05c.04-.03.05-.08.04-.14l-2.23-9.38c-.02-.08-.06-.13-.1-.13-.04,0-.08.05-.1.13l-2.17,9.38c-.02.07,0,.11.03.14M114.18,52.31c.07.08.17.11.27.11h13c.11,0,.2-.03.27-.11.08-.07.11-.17.11-.28v-3.14c0-.1-.04-.19-.11-.27-.07-.08-.17-.11-.27-.11h-8.67c-.11,0-.16-.05-.16-.17v-18.17c0-.11-.04-.2-.11-.28-.08-.07-.17-.11-.27-.11h-3.78c-.11,0-.2.04-.27.11-.08.08-.12.17-.12.28v21.86c0,.11.04.2.12.28M141.29,51.8c1.12.58,2.42.87,3.88.87s2.76-.28,3.88-.86c1.12-.57,1.99-1.39,2.6-2.45.61-1.05.92-2.27.92-3.65v-.1c0-.11-.04-.2-.12-.28-.07-.07-.17-.11-.27-.11l-3.79-.16c-.26,0-.39.12-.39.36v.42c0,.88-.26,1.59-.77,2.11-.52.53-1.21.79-2.07.79s-1.55-.26-2.07-.79c-.52-.53-.77-1.23-.77-2.11v-9.48c0-.89.26-1.6.77-2.13.52-.54,1.21-.81,2.07-.81s1.55.27,2.07.81c.52.54.77,1.25.77,2.13v.42c0,.24.13.36.39.36l3.79-.16c.11,0,.2-.05.27-.13.08-.09.12-.18.12-.29v-.16c0-1.38-.31-2.59-.92-3.63-.61-1.03-1.48-1.83-2.6-2.4-1.12-.57-2.42-.86-3.88-.86s-2.76.29-3.88.87c-1.12.58-1.99,1.41-2.6,2.48-.62,1.06-.92,2.3-.92,3.7v8.99c0,1.42.31,2.67.92,3.75.61,1.08,1.48,1.91,2.6,2.49M166.58,52.1l-.74-3.17c-.02-.09-.08-.13-.16-.13h-6.05c-.09,0-.14.04-.16.13l-.74,3.17c-.07.21-.21.32-.42.32h-3.91c-.28,0-.39-.14-.33-.42l5.82-21.89c.06-.22.22-.32.45-.32h4.69c.24,0,.39.1.45.32l5.82,21.89.03.13c0,.19-.12.29-.35.29h-3.95c-.23,0-.39-.11-.45-.32M160.37,45.22s.09.05.13.05h4.27s.09-.02.13-.05c.04-.03.05-.08.03-.14l-2.23-9.38c-.02-.08-.05-.13-.1-.13s-.08.05-.1.13l-2.16,9.38c-.02.07-.01.11.03.14M184.96,29.89c-.07.08-.11.17-.11.28v13.03c0,.09-.02.13-.07.13s-.08-.03-.13-.1l-6.18-13.16c-.09-.2-.23-.29-.45-.29h-3.91c-.11,0-.2.04-.27.11-.08.08-.11.17-.11.28v21.86c0,.11.04.2.11.28.08.08.17.11.27.11h3.75c.11,0,.2-.03.28-.11.08-.07.11-.17.11-.28l-.03-13.03c0-.09.02-.13.07-.13.04,0,.09.03.13.1l6.18,13.16c.09.19.24.29.45.29h3.94c.11,0,.2-.03.28-.11.08-.07.11-.17.11-.28v-21.86c0-.11-.03-.2-.11-.28-.07-.07-.17-.11-.28-.11h-3.75c-.11,0-.2.04-.27.11M207.15,29.89c-.08-.07-.17-.11-.28-.11h-14.55c-.11,0-.2.04-.28.11-.07.08-.11.17-.11.28v3.17c0,.11.04.2.11.27.08.08.17.12.28.12h4.75c.11,0,.16.05.16.16v18.14c0,.11.04.2.12.28.07.08.17.11.27.11h3.78c.11,0,.2-.03.28-.11.07-.07.11-.17.11-.28v-18.14c0-.11.06-.16.16-.16h4.91c.11,0,.2-.04.28-.12.07-.07.11-.16.11-.27v-3.17c0-.11-.04-.2-.11-.28M223.48,33.59c.07-.08.11-.17.11-.27v-3.14c0-.11-.04-.2-.11-.28-.07-.07-.17-.11-.28-.11h-13c-.11,0-.2.04-.28.11-.08.08-.11.17-.11.28v21.86c0,.11.04.2.11.28.08.08.17.11.28.11h13c.11,0,.2-.03.28-.11.07-.07.11-.17.11-.28v-3.14c0-.1-.04-.19-.11-.27-.07-.08-.17-.11-.28-.11h-8.67c-.11,0-.16-.05-.16-.17v-5.2c0-.1.05-.16.16-.16h5.4c.11,0,.2-.04.27-.11.08-.08.11-.17.11-.28v-3.14c0-.11-.04-.2-.11-.28-.07-.07-.17-.11-.27-.11h-5.4c-.11,0-.16-.05-.16-.16v-5.04c0-.11.05-.16.16-.16h8.67c.11,0,.2-.04.28-.11M134.65,29.89c-.08-.07-.17-.11-.28-.11h-6.04c-.1,0-.19.03-.27.11-.08.08-.11.17-.11.28v2.98c0,.11.04.2.11.27.08.07.17.11.27.11h1.87v18.49c0,.11.04.2.11.28.08.08.17.11.28.11h3.78c.11,0,.2-.03.28-.11.07-.07.11-.17.11-.28v-21.86c0-.11-.04-.2-.11-.28"></path></g></g></g><g><path class="cls-1" d="M192.05,73.36c-.05-.05-.08-.11-.08-.19v-14.89c0-.07.03-.13.08-.19.05-.05.11-.08.19-.08h3.13c.07,0,.14.03.19.08.05.05.08.11.08.19v11.91c0,.07.04.11.11.11h5.77c.07,0,.14.03.19.08s.08.11.08.19v2.6c0,.07-.03.14-.08.19-.05.05-.11.08-.19.08h-9.27c-.07,0-.14-.03-.19-.08Z"></path><path class="cls-1" d="M210.03,62.36c.73.32,1.31.77,1.73,1.33.42.57.63,1.21.63,1.93v7.55c0,.07-.03.14-.08.19-.05.05-.11.08-.19.08h-3.13c-.07,0-.14-.03-.19-.08-.05-.05-.08-.11-.08-.19v-.64s-.01-.07-.04-.09c-.03-.01-.06,0-.09.04-.51.73-1.37,1.11-2.55,1.12-1.01,0-1.85-.26-2.5-.77-.65-.51-.98-1.37-.98-2.58,0-1.28.39-2.19,1.16-2.73.77-.54,1.9-.81,3.38-.81h1.52c.07,0,.11-.04.11-.11v-.48c0-.34-.1-.61-.31-.81-.21-.21-.49-.31-.86-.31-.28,0-.51.06-.69.19s-.31.29-.39.5c-.04.16-.14.24-.29.22l-3.19-.2c-.18-.03-.26-.11-.26-.24.04-.71.27-1.33.69-1.87s.98-.96,1.7-1.27c.71-.3,1.51-.45,2.39-.45.94,0,1.78.16,2.51.48ZM208.3,70.6c.29-.23.43-.52.43-.89v-.66c0-.07-.04-.11-.11-.11h-.99c-.43,0-.76.09-1,.28s-.36.44-.36.78c0,.29.09.53.27.69.18.17.43.25.74.25.4,0,.74-.11,1.02-.34Z"></path><path class="cls-1" d="M223.59,67.55c0,1-.07,1.81-.2,2.42-.23,1.14-.64,2.04-1.21,2.67-.57.64-1.31.96-2.22.96-.98,0-1.74-.29-2.27-.86-.03-.03-.06-.04-.09-.03-.03,0-.04.03-.04.08v.37c0,.07-.03.14-.08.19-.05.05-.11.08-.19.08h-3.13c-.07,0-.14-.03-.19-.08-.05-.05-.08-.11-.08-.19v-14.89c0-.07.03-.13.08-.19.05-.05.11-.08.19-.08h3.13c.07,0,.14.03.19.08.05.05.08.11.08.19v4.36s.01.07.04.08c.03,0,.06,0,.09-.03.5-.54,1.25-.81,2.25-.81.94,0,1.7.3,2.28.91s.98,1.47,1.2,2.59c.12.63.18,1.36.18,2.18ZM219.83,66.08c-.07-.34-.21-.6-.4-.79-.19-.19-.42-.29-.68-.29-.29,0-.53.1-.72.3s-.3.47-.36.8c-.07.4-.11.93-.11,1.61,0,.73.04,1.27.11,1.61.07.35.2.64.39.85.18.21.41.32.69.32.29,0,.53-.11.72-.32.18-.21.31-.5.39-.85.06-.43.09-1.1.09-2.03,0-.56-.04-.96-.11-1.21Z"></path></g></svg>