<svg xmlns="http://www.w3.org/2000/svg" xmlns:xlink="http://www.w3.org/1999/xlink" id="Capa_1" data-name="Capa 1" viewBox="0 0 268.99 78.65"><defs><linearGradient id="Degradado_sin_nombre_36" data-name="Degradado sin nombre 36" x1="8.77" y1="69.83" x2="51.16" y2="27.43" gradientUnits="userSpaceOnUse"><stop offset="0" stop-color="#004fb8"></stop><stop offset="1" stop-color="#00ea6d"></stop></linearGradient><linearGradient id="Degradado_sin_nombre_32" data-name="Degradado sin nombre 32" x1="34.59" y1="71.61" x2="76.71" y2="29.49" gradientUnits="userSpaceOnUse"><stop offset="0" stop-color="#004fb8"></stop><stop offset="1" stop-color="#00ea6d"></stop></linearGradient><linearGradient id="Degradado_sin_nombre_40" data-name="Degradado sin nombre 40" x1="67.68" y1="30.91" x2="96.2" y2="2.39" gradientUnits="userSpaceOnUse"><stop offset="0" stop-color="#004fb8"></stop><stop offset="1" stop-color="#00ea6d"></stop></linearGradient></defs><g id="Dise&#xF1;o"><g><g><path d="M29.96,18.65C13.41,18.65-.02,32.07-.02,48.63s13.42,29.98,29.98,29.98,29.98-13.42,29.98-29.98-13.42-29.98-29.98-29.98M29.96,34.95c2.26,0,4.38.56,6.26,1.52l-14.41,23.12c-3.35-2.49-5.52-6.47-5.52-10.96,0-7.55,6.12-13.68,13.68-13.68M29.96,62.31c-1.98,0-3.86-.43-5.56-1.19l14.33-22.98c3,2.51,4.91,6.28,4.91,10.49,0,7.56-6.12,13.68-13.68,13.68" style="fill: url(#Degradado_sin_nombre_36); stroke-width: 0px;"></path><polygon points="65.69 67.02 65.69 18.48 54.98 18.48 49.62 18.48 41.58 18.48 41.58 30.06 49.62 30.06 49.62 67.02 41.58 67.02 41.58 78.61 73.73 78.61 73.73 67.02 65.69 67.02" style="fill: url(#Degradado_sin_nombre_32); stroke-width: 0px;"></polygon><path d="M59.95,48.63c0-12.44-7.58-23.11-18.36-27.64v9.08h8.03v36.96h-8.03v9.25c10.79-4.54,18.36-15.21,18.36-27.65" style="fill: #004fb8; stroke-width: 0px;"></path><path d="M93.81,0v8.03h-12.05v6.44h8.03v8.03h-8.03v14.46h-8.04V8.06C73.73,3.61,77.33,0,81.78,0h12.03Z" style="fill: url(#Degradado_sin_nombre_40); stroke-width: 0px;"></path></g><g><g><path d="M126.81,55.3h-10.8c-.1,0-.15.05-.15.14v8.96c0,.1.05.14.15.14h7.26c.24,0,.36.12.36.36v1.52c0,.24-.12.36-.36.36h-7.26c-.1,0-.15.05-.15.14v11.06c0,.24-.12.36-.36.36h-1.84c-.24,0-.36-.12-.36-.36v-24.57c0-.24.12-.36.36-.36h13.15c.24,0,.36.12.36.36v1.52c0,.24-.12.36-.36.36Z" style="fill: #334045; stroke-width: 0px;"></path><path d="M134.13,77.71c-1.12-.62-1.99-1.51-2.6-2.64-.61-1.13-.92-2.44-.92-3.94v-17.71c0-.24.12-.36.36-.36h1.84c.24,0,.36.12.36.36v17.85c0,1.54.44,2.78,1.33,3.72.89.94,2.06,1.41,3.51,1.41s2.61-.47,3.51-1.41c.89-.94,1.34-2.18,1.34-3.72v-17.85c0-.24.12-.36.36-.36h1.84c.24,0,.36.12.36.36v17.71c0,1.5-.31,2.81-.92,3.94-.62,1.13-1.48,2.01-2.6,2.64-1.12.63-2.42.94-3.89.94s-2.76-.31-3.88-.94Z" style="fill: #334045; stroke-width: 0px;"></path><path d="M164.68,53.42v1.52c0,.24-.12.36-.36.36h-5.89c-.1,0-.14.05-.14.14v22.55c0,.24-.12.36-.36.36h-1.85c-.24,0-.36-.12-.36-.36v-22.55c0-.1-.05-.14-.14-.14h-5.68c-.24,0-.36-.12-.36-.36v-1.52c0-.24.12-.36.36-.36h14.42c.24,0,.36.12.36.36Z" style="fill: #334045; stroke-width: 0px;"></path><path d="M172.36,77.71c-1.12-.62-1.99-1.51-2.6-2.64-.61-1.13-.92-2.44-.92-3.94v-17.71c0-.24.12-.36.36-.36h1.84c.24,0,.36.12.36.36v17.85c0,1.54.44,2.78,1.33,3.72.89.94,2.06,1.41,3.51,1.41s2.61-.47,3.51-1.41c.89-.94,1.34-2.18,1.34-3.72v-17.85c0-.24.12-.36.36-.36h1.84c.24,0,.36.12.36.36v17.71c0,1.5-.31,2.81-.92,3.94-.62,1.13-1.48,2.01-2.6,2.64-1.12.63-2.42.94-3.89.94s-2.76-.31-3.88-.94Z" style="fill: #334045; stroke-width: 0px;"></path><path d="M201.4,78.07l-4.48-11.17c-.02-.07-.07-.11-.15-.11h-4.66c-.1,0-.15.05-.15.14v11.06c0,.24-.12.36-.36.36h-1.84c-.24,0-.36-.12-.36-.36v-24.57c0-.24.12-.36.36-.36h7.66c1.25,0,2.37.29,3.34.87.98.58,1.74,1.4,2.28,2.46.54,1.06.82,2.28.82,3.65,0,1.64-.4,3.04-1.19,4.19-.8,1.16-1.88,1.93-3.25,2.31-.1.05-.12.11-.07.18l4.66,11.2.04.14c0,.19-.11.29-.32.29h-1.92c-.19,0-.32-.1-.4-.29ZM191.96,55.44v9.14c0,.1.05.14.15.14h4.99c1.25,0,2.26-.43,3.04-1.3.77-.87,1.16-2,1.16-3.4s-.39-2.57-1.16-3.43c-.77-.87-1.78-1.3-3.04-1.3h-4.99c-.1,0-.15.05-.15.14Z" style="fill: #334045; stroke-width: 0px;"></path><path d="M221.23,78.03l-1.19-4.52c-.02-.07-.08-.11-.18-.11h-8.64c-.1,0-.15.03-.18.11l-1.19,4.52c-.05.22-.18.32-.4.32h-1.88c-.12,0-.21-.04-.27-.11-.06-.07-.08-.17-.05-.29l6.76-24.57c.05-.22.18-.32.4-.32h2.31c.22,0,.35.11.4.32l6.76,24.57.04.11c0,.19-.12.29-.36.29h-1.92c-.22,0-.35-.11-.4-.32ZM211.68,71.26s.08.05.13.05h7.48s.09-.02.13-.05c.04-.04.04-.07.02-.09l-3.83-14.53s-.05-.07-.07-.07-.05.02-.07.07l-3.79,14.53s-.02.05.02.09Z" style="fill: #334045; stroke-width: 0px;"></path></g><path id="ALICANTE" d="M126.5,45.82l-.91-3.87c-.03-.11-.09-.16-.19-.16h-7.39c-.11,0-.17.05-.2.16l-.91,3.87c-.08.26-.25.39-.51.39h-4.78c-.34,0-.47-.17-.4-.51l7.11-26.73c.08-.27.27-.4.56-.4h5.73c.29,0,.47.13.55.4l7.11,26.73.04.16c0,.24-.14.35-.43.35h-4.82c-.29,0-.47-.13-.55-.39M118.91,37.43c.05.04.1.06.15.06h5.21c.05,0,.11-.02.16-.06.05-.04.07-.1.04-.18l-2.73-11.45c-.03-.1-.07-.16-.12-.16-.05,0-.09.06-.12.16l-2.65,11.45c-.03.08,0,.14.04.18M135.36,46.08c.09.1.2.14.33.14h15.88c.13,0,.24-.04.33-.14.09-.09.14-.21.14-.34v-3.83c0-.13-.04-.24-.14-.33-.09-.09-.2-.14-.33-.14h-10.59c-.13,0-.2-.06-.2-.2v-22.19c0-.13-.05-.25-.14-.34-.09-.08-.21-.13-.34-.13h-4.62c-.13,0-.24.05-.33.13-.09.1-.14.21-.14.34v26.69c0,.13.05.25.14.34M168.47,45.46c1.37.71,2.95,1.07,4.74,1.07s3.37-.35,4.74-1.04c1.37-.7,2.43-1.69,3.18-2.99.75-1.28,1.13-2.77,1.13-4.46v-.12c0-.13-.05-.25-.14-.34-.09-.09-.2-.14-.33-.14l-4.63-.2c-.31,0-.47.14-.47.43v.52c0,1.08-.31,1.94-.95,2.58-.64.65-1.48.97-2.53.97s-1.9-.32-2.53-.97c-.63-.64-.95-1.51-.95-2.58v-11.57c0-1.08.31-1.95.95-2.61.63-.66,1.47-.99,2.53-.99s1.89.33,2.53.99c.63.65.95,1.52.95,2.61v.51c0,.29.16.44.47.44l4.63-.19c.13,0,.24-.06.33-.16.09-.1.14-.22.14-.35v-.2c0-1.68-.38-3.16-1.13-4.43-.75-1.25-1.81-2.24-3.18-2.94-1.37-.7-2.95-1.04-4.74-1.04s-3.37.35-4.74,1.06c-1.37.71-2.43,1.72-3.18,3.03-.75,1.3-1.13,2.81-1.13,4.52v10.98c0,1.74.38,3.27,1.13,4.58.75,1.32,1.81,2.34,3.18,3.04M199.35,45.82l-.91-3.87c-.03-.11-.09-.16-.2-.16h-7.38c-.11,0-.17.05-.2.16l-.91,3.87c-.08.26-.25.39-.52.39h-4.77c-.35,0-.48-.17-.4-.51l7.11-26.73c.07-.27.26-.4.55-.4h5.72c.29,0,.47.13.55.4l7.11,26.73.04.16c0,.24-.14.35-.43.35h-4.82c-.29,0-.47-.13-.55-.39M191.77,37.43c.05.04.11.06.16.06h5.21c.05,0,.11-.02.16-.06.05-.04.07-.1.04-.18l-2.73-11.45c-.03-.1-.07-.16-.12-.16s-.09.06-.12.16l-2.64,11.45c-.03.08-.01.14.04.18M221.8,18.71c-.09.1-.13.21-.13.34v15.91c0,.1-.03.16-.08.16s-.1-.04-.16-.12l-7.55-16.07c-.11-.24-.29-.36-.55-.36h-4.78c-.13,0-.24.05-.34.13-.09.1-.14.21-.14.34v26.69c0,.13.04.25.14.34.09.09.21.14.34.14h4.58c.13,0,.25-.04.34-.14.09-.09.14-.21.14-.34l-.04-15.91c0-.11.03-.16.08-.16.05,0,.1.04.16.12l7.54,16.07c.1.24.29.35.55.35h4.82c.13,0,.25-.04.34-.14.09-.09.14-.21.14-.34v-26.69c0-.13-.04-.24-.14-.34-.09-.08-.2-.13-.34-.13h-4.58c-.13,0-.24.05-.34.13M248.89,18.71c-.09-.08-.21-.13-.34-.13h-17.77c-.13,0-.24.05-.34.13-.09.1-.14.21-.14.34v3.87c0,.13.05.24.14.33.09.1.21.14.34.14h5.8c.13,0,.2.06.2.2v22.15c0,.13.05.25.14.34.09.09.2.14.33.14h4.62c.13,0,.25-.04.34-.14.09-.09.14-.21.14-.34v-22.15c0-.13.07-.2.2-.2h6c.13,0,.24-.04.34-.14.09-.09.14-.2.14-.33v-3.87c0-.13-.05-.24-.14-.34M268.83,23.22c.09-.1.14-.2.14-.34v-3.83c0-.13-.05-.24-.14-.34-.09-.09-.21-.13-.34-.13h-15.87c-.13,0-.24.05-.34.13-.09.1-.14.21-.14.34v26.69c0,.13.04.25.14.34.09.1.2.14.34.14h15.87c.13,0,.25-.04.34-.14.09-.09.14-.21.14-.34v-3.83c0-.13-.05-.24-.14-.33-.09-.1-.21-.14-.34-.14h-10.58c-.13,0-.2-.06-.2-.2v-6.35c0-.13.07-.2.2-.2h6.59c.13,0,.24-.04.34-.13s.14-.21.14-.34v-3.83c0-.13-.04-.25-.14-.34-.09-.09-.2-.14-.34-.14h-6.59c-.13,0-.2-.06-.2-.2v-6.16c0-.14.07-.2.2-.2h10.58c.13,0,.25-.05.34-.14M160.36,18.71c-.09-.08-.2-.13-.34-.13h-7.37c-.13,0-.24.04-.33.13-.09.1-.14.2-.14.34v3.64c0,.13.04.24.14.34.09.09.21.14.33.14h2.28v22.58c0,.13.04.25.14.34.09.09.2.14.34.14h4.62c.13,0,.24-.04.34-.14.09-.09.14-.21.14-.34v-26.69c0-.13-.05-.24-.14-.34" style="fill: #334045; stroke-width: 0px;"></path></g></g></g><g><path d="M230.43,71.84c-.06-.06-.09-.14-.09-.23v-18.2c0-.09.03-.17.09-.23.06-.06.14-.09.23-.09h3.82c.09,0,.17.03.23.09.06.06.09.14.09.23v14.57c0,.09.04.13.13.13h7.05c.09,0,.17.03.23.09.06.06.09.14.09.23v3.18c0,.09-.03.17-.09.23-.06.06-.14.09-.23.09h-11.33c-.09,0-.17-.03-.23-.09Z" style="fill: #334045; stroke-width: 0px;"></path><path d="M252.42,58.39c.9.4,1.6.94,2.11,1.63.51.69.77,1.48.77,2.36v9.24c0,.09-.03.17-.09.23-.06.06-.14.09-.23.09h-3.82c-.09,0-.17-.03-.23-.09-.06-.06-.09-.14-.09-.23v-.78c0-.05-.02-.09-.05-.11-.04-.02-.07,0-.11.05-.63.9-1.67,1.36-3.12,1.37-1.24,0-2.26-.31-3.06-.94-.8-.63-1.2-1.68-1.2-3.15,0-1.56.47-2.67,1.41-3.34.94-.66,2.32-1,4.13-1h1.86c.09,0,.13-.04.13-.13v-.59c0-.41-.13-.74-.38-1-.25-.25-.6-.38-1.05-.38-.34,0-.62.08-.85.23-.22.15-.38.35-.47.61-.05.2-.17.29-.35.27l-3.9-.24c-.22-.04-.32-.13-.32-.3.05-.86.34-1.62.85-2.29.51-.66,1.2-1.18,2.07-1.55.87-.37,1.84-.55,2.92-.55,1.15,0,2.17.2,3.07.59ZM250.3,68.47c.35-.28.53-.64.53-1.09v-.81c0-.09-.04-.13-.13-.13h-1.21c-.52,0-.93.11-1.23.34-.3.22-.44.54-.44.96,0,.36.11.64.34.85.22.21.52.31.9.31.49,0,.9-.14,1.25-.42Z" style="fill: #334045; stroke-width: 0px;"></path><path d="M269,64.74c0,1.22-.08,2.21-.24,2.96-.29,1.4-.78,2.49-1.48,3.27-.7.78-1.61,1.17-2.72,1.17-1.2,0-2.13-.35-2.77-1.05-.04-.04-.07-.05-.11-.04-.04,0-.05.04-.05.09v.46c0,.09-.03.17-.09.23-.06.06-.14.09-.23.09h-3.82c-.09,0-.17-.03-.23-.09-.06-.06-.09-.14-.09-.23v-18.2c0-.09.03-.17.09-.23.06-.06.14-.09.23-.09h3.82c.09,0,.17.03.23.09.06.06.09.14.09.23v5.33c0,.05.02.09.05.09.04,0,.07,0,.11-.04.61-.66,1.53-1,2.75-1,1.15,0,2.08.37,2.79,1.12.71.75,1.2,1.8,1.47,3.16.14.77.21,1.66.21,2.67ZM264.4,62.94c-.09-.41-.25-.74-.49-.97-.23-.23-.51-.35-.83-.35-.36,0-.65.12-.88.36-.22.24-.37.57-.44.98-.09.48-.13,1.14-.13,1.97,0,.9.04,1.55.13,1.97.09.43.25.78.47,1.04.22.26.51.39.85.39s.65-.13.88-.39c.22-.26.38-.61.47-1.04.07-.52.11-1.35.11-2.48,0-.68-.05-1.18-.13-1.48Z" style="fill: #334045; stroke-width: 0px;"></path></g></svg>