<svg xmlns="http://www.w3.org/2000/svg" id="Capa_1" data-name="Capa 1" viewBox="0 0 115.22 103.82"><defs><style>      .cls-1 {        fill: none;        stroke: #00ea6d;        stroke-linecap: round;        stroke-linejoin: round;        stroke-width: 4.25px;      }    </style></defs><path class="cls-1" d="M75.1,24.55H23.09c-6.75,0-12.22,5.48-12.22,12.25v39.3c0,6.77,5.47,12.25,12.22,12.25h0c4.38,0,7.93,3.56,7.93,7.95v1.75l16.05-8.73c1.16-.63,2.46-.96,3.78-.96h24.25c6.75,0,12.22-5.48,12.22-12.25v-39.3c0-6.77-5.47-12.25-12.22-12.25Z"></path><path class="cls-1" d="M88.08,69.57h4.05c6.63,0,12.03-5.3,12.21-11.9"></path><path class="cls-1" d="M104.35,37.87v-19.85c0-6.77-5.47-12.25-12.22-12.25h-52.02c-6.75,0-12.22,5.48-12.22,12.25v5.24"></path><line class="cls-1" x1="31.08" y1="57.1" x2="31.08" y2="57.1"></line><line class="cls-1" x1="49.1" y1="57.1" x2="49.1" y2="57.1"></line><line class="cls-1" x1="67.11" y1="57.1" x2="67.11" y2="57.1"></line></svg>