<svg xmlns="http://www.w3.org/2000/svg" id="Capa_1" data-name="Capa 1" viewBox="0 0 115.22 103.82"><defs><style>      .cls-1 {        fill: none;        stroke: #00ea6d;        stroke-linecap: round;        stroke-linejoin: round;        stroke-width: 2.83px;      }    </style></defs><g id="g3376"><g id="g3382"><path id="path3384" class="cls-1" d="M12.64,93.18l1.97-1.97c1.16.39,2.43.39,3.59,0l1.97,1.97c.29.29.77.29,1.06,0l2.45-2.45c.29-.29.29-.77,0-1.06l-1.97-1.97c.39-1.16.39-2.43,0-3.59l1.97-1.97c.29-.29.29-.77,0-1.06l-2.45-2.45c-.29-.29-.77-.29-1.06,0l-1.97,1.97c-1.16-.39-2.43-.39-3.59,0l-1.97-1.97c-.29-.29-.77-.29-1.06,0l-2.45,2.45c-.29.29-.29.77,0,1.06l1.97,1.97c-.39,1.16-.39,2.43,0,3.59l-1.97,1.97c-.29.29-.29.77,0,1.06l2.45,2.45c.29.29.77.29,1.06,0Z"></path></g><g id="g3386"><path id="path3388" class="cls-1" d="M93.39,12.47h10.56c1.31,0,2.37,1.06,2.37,2.37v79.37c0,1.31-1.06,2.37-2.37,2.37h-58.53c-1.31,0-2.37-1.06-2.37-2.37V14.84c0-1.31,1.06-2.37,2.37-2.37h17.48"></path></g><g id="g3390"><path id="path3392" class="cls-1" d="M43.04,69.04c-1.84,1.22-3.93,2.09-6.17,2.54v4.55c0,.9-.73,1.63-1.63,1.63h-3.53c-.9,0-1.63-.73-1.63-1.63v-4.55c-2.28-.45-4.39-1.35-6.26-2.59l-3.21,3.21c-.64.64-1.67.64-2.31,0l-2.5-2.5c-.64-.64-.64-1.67,0-2.31l3.22-3.22c-1.25-1.86-2.14-3.98-2.59-6.25h-4.55c-.9,0-1.63-.73-1.63-1.63v-3.54c0-.9.73-1.63,1.63-1.63h4.55c.45-2.28,1.35-4.39,2.59-6.25l-3.22-3.22c-.64-.64-.64-1.67,0-2.31l2.5-2.5c.64-.64,1.67-.64,2.31,0l3.21,3.21c1.86-1.25,3.98-2.14,6.26-2.59v-4.55c0-.9.73-1.63,1.63-1.63h3.53c.9,0,1.63.73,1.63,1.63v4.55c2.24.44,4.33,1.32,6.17,2.54"></path></g><g id="g3394"><path id="path3396" class="cls-1" d="M24.48,51.23c1.34-3.67,4.86-6.29,9-6.29,5.29,0,9.58,4.29,9.58,9.58s-4.29,9.58-9.58,9.58c-4.05,0-7.51-2.52-8.91-6.07"></path></g><path id="path3398" class="cls-1" d="M48.59,18.01h52.19v73.03h-52.19V18.01Z"></path><g id="g3400"><path id="path3402" class="cls-1" d="M84.92,18.01h-20.48c-1.41,0-2.46-1.3-2.17-2.68l1.31-6.11c.25-1.16,1.27-1.98,2.45-1.98h17.28c1.18,0,2.2.83,2.45,1.98l1.31,6.11c.3,1.38-.75,2.68-2.17,2.68Z"></path></g><g id="g3404"><path id="path3406" class="cls-1" d="M91.55,59.39h-33.81"></path></g><g id="g3408"><path id="path3410" class="cls-1" d="M91.55,68.16h-33.81"></path></g><g id="g3412"><path id="path3414" class="cls-1" d="M69.14,77.14h-11.4"></path></g><g id="g3416"><path id="path3418" class="cls-1" d="M84.08,42.79c-1.89,3.22-5.39,5.38-9.4,5.38-6.02,0-10.9-4.88-10.9-10.9s4.88-10.9,10.9-10.9v10.9l9.4,5.52Z"></path></g><g id="g3420"><path id="path3422" class="cls-1" d="M85.58,37.26c0,2.02-.55,3.91-1.5,5.52l-9.4-5.52v-10.9c6.02,0,10.9,4.88,10.9,10.9Z"></path></g><g id="g3424"><path id="path3426" class="cls-1" d="M84.08,42.79l3.47,2.16h4.01"></path></g></g></svg>