<svg xmlns="http://www.w3.org/2000/svg" id="Capa_1" data-name="Capa 1" viewBox="0 0 115.22 103.82"><defs><style>      .cls-1 {        fill: none;        stroke: #00ea6d;        stroke-linecap: round;        stroke-linejoin: round;        stroke-width: 2.83px;      }    </style></defs><g id="g1192"><g id="g1198"><path id="path1200" class="cls-1" d="M34.06,48.99v4.34c0,2.4-1.94,4.34-4.34,4.34s-4.34-1.94-4.34-4.34v-4.34"></path></g><g id="g1202"><path id="path1204" class="cls-1" d="M38.59,77.21h11.77v-14.91c0-3.56-2.51-6.63-6-7.35l-10.16-2.08"></path></g><g id="g1206"><path id="path1208" class="cls-1" d="M25.23,52.87l-10.16,2.08c-3.49.71-6,3.79-6,7.35v14.91h11.77"></path></g><g id="g1210"><path id="path1212" class="cls-1" d="M29.71,26.49h0c-5.16,0-9.35,4.18-9.35,9.35v4.52c0,5.16,4.18,9.35,9.35,9.35s9.35-4.18,9.35-9.35v-4.52c0-5.16-4.18-9.35-9.35-9.35Z"></path></g><g id="g1214"><path id="path1216" class="cls-1" d="M92.73,3.42h0c-3.35,0-6.07,2.72-6.07,6.07v2.09c0,3.35,2.72,6.07,6.07,6.07s6.07-2.72,6.07-6.07v-2.09c0-3.35-2.72-6.07-6.07-6.07Z"></path></g><g id="g1218"><path id="path1220" class="cls-1" d="M96.78,17.66h-8.08c-5.18,0-9.38,4.2-9.38,9.38v1.42h26.84v-1.42c0-5.18-4.2-9.38-9.38-9.38Z"></path></g><g id="g1222"><path id="path1224" class="cls-1" d="M92.73,39.39h0c-3.35,0-6.07,2.72-6.07,6.07v2.09c0,3.35,2.72,6.07,6.07,6.07s6.07-2.72,6.07-6.07v-2.09c0-3.35-2.72-6.07-6.07-6.07Z"></path></g><g id="g1226"><path id="path1228" class="cls-1" d="M96.78,53.63h-8.08c-5.18,0-9.38,4.2-9.38,9.38v1.42h26.84v-1.42c0-5.18-4.2-9.38-9.38-9.38Z"></path></g><g id="g1230"><path id="path1232" class="cls-1" d="M92.73,75.36h0c-3.35,0-6.07,2.72-6.07,6.07v2.09c0,3.35,2.72,6.07,6.07,6.07s6.07-2.72,6.07-6.07v-2.09c0-3.35-2.72-6.07-6.07-6.07Z"></path></g><g id="g1234"><path id="path1236" class="cls-1" d="M96.78,89.6h-8.08c-5.18,0-9.38,4.2-9.38,9.38v1.42h26.84v-1.42c0-5.18-4.2-9.38-9.38-9.38Z"></path></g><g id="g1238"><path id="path1240" class="cls-1" d="M71.88,13.18h-9.5v77.34h9.5"></path></g><g id="g1242"><path id="path1244" class="cls-1" d="M55.93,51.85h15.95"></path></g><g id="g1246"><path id="path1248" class="cls-1" d="M29.71,77.21h0"></path></g></g></svg>