<svg xmlns="http://www.w3.org/2000/svg" id="Capa_1" data-name="Capa 1" viewBox="0 0 115.22 103.82"><defs><style>      .cls-1 {        fill: none;        stroke: #00ea6d;        stroke-linecap: round;        stroke-linejoin: round;        stroke-width: 2.83px;      }    </style></defs><path class="cls-1" d="M66.43,21.61c0-.24-.32-.32-.43-.11-1.45,2.71-4.3,4.55-7.58,4.55h-13.16v8.73c0,6.36,4.98,12.17,12.52,12.17,6.71,0,12.17-5.46,12.17-12.17v-8.82c-2-.43-3.52-2.21-3.52-4.34Z"></path><path class="cls-1" d="M36.38,65.69v11.81"></path><path class="cls-1" d="M40.92,24.69c-1.51.72-2.56,2.26-2.56,4.05h0c0,2.48,2.01,4.49,4.49,4.49h2.42v-7.18h-1.52c-1.14,0-2.16-.53-2.82-1.36Z"></path><path class="cls-1" d="M73.11,24.32c-.27.99-1.17,1.73-2.24,1.73h0c-.31,0-.62-.04-.92-.1h0v7.28h2.42c2.48,0,4.49-2.01,4.49-4.49h0c0-2.22-1.62-4.07-3.74-4.42Z"></path><path class="cls-1" d="M78.84,65.69v11.81"></path><path class="cls-1" d="M41.39,53.47l7.92,8.12c.62.64,1.65.65,2.28.02l2.42-2.4c1.25-1.24,1.22-3.28-.07-4.47l-4.69-4.34-7.86,3.07Z"></path><path class="cls-1" d="M63.62,61.6c.63.63,1.66.62,2.28-.02l7.9-8.1c-3.24-1.26-6.48-2.51-7.89-3.05l-4.65,4.3c-1.29,1.2-1.33,3.23-.07,4.47l2.42,2.4Z"></path><path class="cls-1" d="M60.74,65.69l2.03-4.93-1.56-1.55c-.49-.49-.78-1.1-.88-1.73h-5.42c-.1.63-.39,1.25-.88,1.73l-1.56,1.55,2.03,4.93h6.26Z"></path><path class="cls-1" d="M69.16,10.03c-1.16.09-2.23-.64-2.45-1.79-.38-1.93-1.33-3.84-5.06-3.84h-12.93c-4.75,0-8.59,3.85-8.59,8.59v9.43c0,2,1.62,3.62,3.62,3.62h14.68c3.28,0,6.13-1.84,7.58-4.55.11-.21.43-.13.43.11,0,2.44,2,4.44,4.44,4.44,1.28,0,2.33-1.05,2.33-2.33v-9.84c0-2.32-2.02-4-4.03-3.85Z"></path><path class="cls-1" d="M96.15,18.92h-22.95v4.8c0,1.28-1.05,2.33-2.33,2.33-2.44,0-4.44-2-4.44-4.44,0-.24-.32-.32-.43-.11-1.45,2.71-4.3,4.55-7.58,4.55h-14.68c-2,0-3.62-1.62-3.62-3.62v-3.51h-21.06c-.67,0-1.21.54-1.21,1.21v56.74c0,.67.54,1.21,1.21,1.21h77.08c.67,0,1.21-.54,1.21-1.21V20.12c0-.67-.54-1.21-1.21-1.21Z"></path><path class="cls-1" d="M82.46,56.84c-.83-.32-16.43-6.36-17.24-6.68-.47-.18-.79-.64-.79-1.15v-4.06c-1.91,1.25-4.2,1.98-6.65,1.98-2.7,0-5.07-.75-7.01-2v4.07c0,.51-.24.81-.53,1l-17.5,6.83c-2.85,1.17-6.67,4.87-6.67,10.35v10.88h63.05v-10.88c0-5.48-3.82-9.18-6.67-10.35Z"></path><polygon class="cls-1" points="53.06 78.07 62.15 78.07 60.74 65.69 54.48 65.69 53.06 78.07"></polygon><path class="cls-1" d="M35.24,85.34v4.4c0,1.46,1.18,2.64,2.64,2.64h39.47c1.46,0,2.64-1.18,2.64-2.64v-4.4h-44.74Z"></path><path class="cls-1" d="M61.24,99.41h41.38c3.62,0,6.55-2.93,6.55-6.55v-5.03c0-1.37-1.11-2.49-2.49-2.49H8.53c-1.37,0-2.49,1.11-2.49,2.49v5.03c0,3.62,2.93,6.55,6.55,6.55h41.38"></path><path class="cls-1" d="M104.62,43.31v-24.91c0-3.73-3.02-6.74-6.74-6.74h-25.39c.44.62.71,1.38.71,2.23v9.84c0,1.28-1.05,2.33-2.33,2.33-2.44,0-4.44-2-4.44-4.44,0-.24-.32-.32-.43-.11-1.45,2.71-4.3,4.55-7.58,4.55h-14.68c-2,0-3.62-1.62-3.62-3.62v-9.43c0-.46.04-.91.11-1.34h-22.89c-3.73,0-6.74,3.02-6.74,6.74v60.19c0,3.73,3.02,6.74,6.74,6.74h80.53c3.73,0,6.74-3.02,6.74-6.74v-28.02"></path></svg>